<?xml version="1.0" encoding="utf-8"?>
<!-- Generator: Adobe Illustrator 17.1.0, SVG Export Plug-In . SVG Version: 6.00 Build 0)  -->
<!DOCTYPE svg PUBLIC "-//W3C//DTD SVG 1.1//EN" "http://www.w3.org/Graphics/SVG/1.1/DTD/svg11.dtd">
<svg version="1.1" id="Layer_1" xmlns="http://www.w3.org/2000/svg" xmlns:xlink="http://www.w3.org/1999/xlink" x="0px" y="0px"
	 viewBox="0 0 43.9 43.9" enable-background="new 0 0 43.9 43.9" xml:space="preserve">
<g>
	<path fill="#EDEEC0" d="M21.9,5.5c9.1,0,16.4,7.4,16.4,16.4S31,38.4,21.9,38.4S5.5,31,5.5,21.9S12.9,5.5,21.9,5.5 M21.9,0
		C9.8,0,0,9.8,0,21.9s9.8,21.9,21.9,21.9S43.9,34,43.9,21.9S34,0,21.9,0L21.9,0z"/>
	<path fill="#EDEEC0" d="M29.4,25.5l-4.7-4.7V11h-5.5v11c0,0.8,0.4,1.5,1,2l5.4,5.4L29.4,25.5z"/>
</g>
</svg>
