<?xml version="1.0" encoding="utf-8"?>
<!-- Generator: Adobe Illustrator 17.1.0, SVG Export Plug-In . SVG Version: 6.00 Build 0)  -->
<!DOCTYPE svg PUBLIC "-//W3C//DTD SVG 1.1//EN" "http://www.w3.org/Graphics/SVG/1.1/DTD/svg11.dtd">
<svg version="1.1" xmlns="http://www.w3.org/2000/svg" xmlns:xlink="http://www.w3.org/1999/xlink" x="0px" y="0px"
	 viewBox="0 0 285.6 376.5" enable-background="new 0 0 285.6 376.5" xml:space="preserve">
<g id="Background" display="none">
	<rect x="0.3" y="0.5" display="inline" fill="#EDEEC0" width="285" height="376"/>
</g>
<g id="Baubles">
	<path fill="#073B3A" d="M165.6,41.4c-0.2,0-0.4,0.1-0.5,0.2c0,0-0.1,0-0.1,0c0.2-0.1,0.3-0.2,0.3-0.4c0-0.8-0.4-1.6-1-2.1
		c0.3-1.9,0.1-3.9-0.4-5.8c-0.3-1-0.6-2.2-1.9-1.9c-1.2,0.3-1.4,1.7-1.4,2.8c0,1.7,0.4,3.4,1.3,4.9c-0.8,0.5-1.3,1.6-0.9,2.5
		c0,0.1,0.1,0.2,0.2,0.2c0,0,0.1,0.1,0.1,0.1c-2.9,0.9-5.5,3.2-6.9,5.9c-2.4,4.8-1.6,11.3,1.7,15.5c3.3,4.1,9.6,5.6,14.4,3.6
		c5.2-2.2,7.4-7.6,6.8-13C176.6,47.7,171.9,42.3,165.6,41.4z"/>
	<path fill="#073B3A" d="M161.7,34.6c0-0.8-0.2-1.2,0.6-1.5c0.9-0.4,0.7,0.5,0.9,1.2c0.1,0.5,0.2,1,0.2,1.6c0.1,1,0,1.9,0,2.9
		c-0.1,0-0.3,0-0.5,0c-0.1,0-0.2,0-0.2,0c-0.4-0.9-0.7-1.8-0.8-2.7C161.7,35.6,161.7,35.1,161.7,34.6z"/>
	<path fill="#FFFFFF" d="M165.6,42.6c0.1,0,0.1,0,0.2-0.1c2.7,0.6,5,2,6.7,3.8c-0.3,0.2-0.5,0.4-0.9,0.4c-0.4,0-0.7-0.1-1-0.4
		c0-0.2,0-0.3-0.1-0.5c-0.1-0.3-0.6-0.3-0.7,0c-0.1,0.4-0.2,0.9-0.6,1.2c-0.7,0.5-1.5,0.1-1.8-0.7c-0.1-0.4-0.9-0.3-0.9,0.1
		c0,1.2-1.5,1.5-1.9,0.4c-0.1-0.1-0.2-0.2-0.4-0.1c-0.2,0-0.4,0.1-0.4,0.2c-0.1,0.5-0.2,1.3-0.7,1.5c-0.9,0.4-1.7,0.1-2.1-0.8
		c-0.1-0.3-0.8-0.3-0.8,0.1c0,1.4-1.6,1.6-2.1,0.4c-0.1-0.3-0.6-0.2-0.5,0.1c0,0,0,0-0.1,0.1c-0.3,0.6-0.7,1.2-1.4,1.3
		c-0.6,0.1-1.1-0.3-1.3-0.8C157,44.9,160.9,42.6,165.6,42.6z"/>
	<path fill="#073B3A" d="M154.9,49.7c0.3,0.4,0.8,0.7,1.3,0.8c0.9,0.1,1.7-0.6,2-1.3c0.7,1,2.3,0.8,2.9-0.2c1.2,1.2,3.5,0.6,3.6-1
		c0.7,0.7,2,0.6,2.6-0.2c0.5,0.5,1.3,0.8,2,0.5c0.5-0.2,0.9-0.5,1.2-0.9c0.2,0.2,0.6,0.4,0.9,0.4c0.6,0.1,1.4-0.1,1.8-0.6
		c0.4,0.4,0.7,0.9,1,1.3c-0.2,0.2-0.4,0.4-0.6,0.6c-0.3,0.2-1.3,0.5-1.6,0.1c0-0.1,0-0.3-0.1-0.4c-0.1-0.2-0.5-0.3-0.6-0.1
		c-0.3,0.5-0.3,1.1-0.9,1.3c-0.6,0.2-1.2,0-1.5-0.5c0-0.1-0.1-0.2-0.2-0.4c-0.1-0.2-0.4-0.2-0.5,0c-0.4,0.4-0.2,1-0.8,1.3
		c-0.6,0.3-1.2,0-1.5-0.5c0,0,0-0.1-0.1-0.1c0,0,0,0,0,0c-0.1-0.2-0.4-0.2-0.5,0c-0.6,0.5-0.8,1.2-1.6,1.3c-0.8,0.1-1.5-0.3-2-1
		c-0.1-0.2-0.3-0.1-0.4,0c-0.1,0-0.3,0.1-0.3,0.2c-0.2,0.6-0.3,1.2-1.1,1.5c-0.7,0.2-1.4-0.3-1.7-0.9c-0.1-0.3-0.6-0.2-0.5,0.2
		c0,0,0,0.1,0,0.1c-0.4,0.5-0.7,1.1-1.3,1.4c-0.7,0.3-1.5,0.1-2-0.5C154.4,51.1,154.6,50.3,154.9,49.7z"/>
	<path fill="#FFFFFF" d="M155.1,59.2c-0.1-0.1-0.1-0.3-0.2-0.4c0.1-0.1,0.1-0.2-0.1-0.2c0,0,0,0,0,0c-0.6-1.7-0.8-3.6-0.7-5.5
		c0-0.2,0-0.4,0.1-0.6c1.1,1,3.2,0.6,3.7-0.8c0.4,0.6,1.2,0.9,1.9,0.8c0.8-0.1,1.5-0.8,1.7-1.6c0.5,0.6,1.3,1,2,0.9
		c0.7,0,1.7-0.5,2.1-1.2c0.4,0.5,1.1,0.7,1.8,0.5c0.4-0.1,0.9-0.5,1.2-1c0.5,0.5,1.2,0.7,1.8,0.6c0.5-0.1,1-0.5,1.3-1
		c0.3,0.2,0.8,0.4,1.2,0.4c0.4,0,1.3-0.3,1.7-0.7c1,1.9,1.6,4.1,1.6,6.4c-0.3,0.2-0.5,0.4-0.9,0.5c-0.7,0.1-1.3-0.3-1.8-0.8
		c-0.1-0.1-0.3-0.1-0.4,0c-0.1,0-0.2,0.1-0.2,0.1c-0.2,0.2-0.2,0.4-0.3,0.6c-0.1,0.4-0.4,0.7-0.8,0.9c-0.8,0.4-1.6,0-2.1-0.7
		c-0.1-0.1-0.2-0.1-0.2-0.1c-0.2-0.1-0.4,0-0.5,0.2c-0.5,1.2-2.1,2.2-3,0.5c-0.1-0.3-0.6-0.4-0.7,0c-0.4,1.6-2,2.1-3.3,1.1
		c-0.1-0.2-0.4-0.2-0.5,0c-0.3,0.6-0.5,1-1.2,1.1c-0.8,0.2-1.4-0.2-1.7-1c-0.1-0.3-0.6-0.2-0.7,0.1c-0.1,1-0.7,1.5-1.8,1.5
		C155.6,59.7,155.3,59.5,155.1,59.2z"/>
	<path fill="#073B3A" d="M155.5,60.2C155.5,60.2,155.6,60.2,155.5,60.2c1.2,0.5,2.3-0.1,2.8-1.1c1,1.1,3.2,1.1,3.6-0.5
		c1.3,1,3.1,0.6,3.8-0.8c1.2,1.2,3.3,1,3.8-0.8c0.6,0.7,1.5,1,2.4,0.8c0.6-0.2,1.4-0.8,1.5-1.5c0.4,0.5,1.1,0.8,1.7,0.8
		c0.3,0,0.7-0.1,1-0.2c0,0.3-0.1,0.7-0.1,1c-0.3,0.3-0.4,0.7-0.9,0.8c-0.6,0.1-1-0.4-1.2-0.9c-0.1-0.2-0.3-0.2-0.5-0.1
		c-0.1,0-0.2,0-0.3,0.1c-0.5,0.4-0.6,1-1.3,1.2c-0.7,0.2-1.3-0.1-1.9-0.5c-0.1,0-0.1-0.1-0.2,0c-0.1-0.1-0.4-0.1-0.5,0
		c-0.3,0.5-0.5,1-1.1,1.2c-0.6,0.2-1.3,0-1.8-0.5c-0.1-0.1-0.2,0-0.3,0.1c-0.1-0.1-0.3-0.1-0.4,0c-0.4,0.5-0.4,1.1-1.1,1.4
		c-0.7,0.3-1.5,0-2-0.5c-0.1-0.1-0.1-0.1-0.2-0.1c-0.1-0.1-0.4-0.2-0.5,0c-0.3,0.5-0.5,1-1.2,0.9c-0.6,0-1.2-0.5-1.7-0.9
		c-0.2-0.1-0.3,0-0.4,0.2c-0.1,0.2-0.2,0.4-0.3,0.6c-0.2,0.3-0.4,0.5-0.7,0.7c-0.5,0.2-0.9,0.1-1.4,0.2
		C156,61.1,155.8,60.7,155.5,60.2z"/>
	<path fill="#FFFFFF" d="M164.3,66.7c-3.2-0.5-5.7-2.1-7.5-4.4c0.4,0,0.9-0.1,1.3-0.2c0.4-0.2,1-0.7,1.2-1.2c0.5,0.5,1.2,0.9,2,0.8
		c0.5-0.1,1.1-0.4,1.3-0.9c0.6,0.6,1.5,0.9,2.3,0.7c0.8-0.2,1.6-1.1,1.5-1.9c0.5,0.7,1.3,1,2.1,0.8c0.6-0.2,1.3-0.7,1.5-1.3
		c0.5,0.6,1.4,0.9,2.1,0.7c0.5-0.1,1.2-0.5,1.5-1c0.3,0.5,0.9,0.9,1.5,0.9c0.2,0,0.4,0,0.7-0.1C174.3,64.2,169.8,67.5,164.3,66.7z"
		/>
	<path fill="none" d="M47.5,49.4c0,0,0-0.1,0-0.1c0,0.1-0.1,0.1-0.1,0.1c-0.2,0-0.4-0.1-0.5-0.1c0,0.1,0,0.1,0,0.2
		C47.1,49.5,47.3,49.4,47.5,49.4z"/>
	<path fill="none" d="M57,56.4C57.1,56.3,57.1,56.3,57,56.4c0-0.3-0.1-0.5-0.3-0.8c-1.3-2.4-3.6-5-6.4-5.3c0,0.1-0.1,0.2-0.3,0.2
		c-2.7,0-5.2,0.2-7.6,1.7c-1.8,1.1-3.1,2.8-3.9,4.7c3.1,1.2,6,2.4,9.4,2.4C51.4,59.3,54.2,58.1,57,56.4z"/>
	<path fill="none" d="M49,46C49,46,49,46,49,46c0.4-1.2,0.7-2.5,0.8-3.8c0-0.6,0-1.2,0-1.8c0-0.4-0.1-0.7-0.1-1.1
		c0-0.7-0.1-0.8-0.5-0.3c-0.9,0.5-1,2.7-1.1,3.7c-0.1,1.1,0,2.2,0.1,3.3C48.4,46,48.7,46,49,46z"/>
	<path fill="none" d="M37.8,63.7c0.2,1.2,0.6,2.4,1.2,3.4c1.5,2.6,4.8,4.1,7.7,4.5c4.9,0.6,9.6-2.8,11.1-7.4
		C51.6,67.7,43.7,67.5,37.8,63.7z"/>
	<path fill="none" d="M57.4,56.9c-4.9,4.5-13.6,3.7-19,0.3c-0.2,0.5-0.4,1-0.5,1.6c-0.3,1.4-0.4,2.8-0.2,4.3
		c6.3,3.6,13.9,3.6,20.2-0.1c0,0,0.1,0,0.1-0.1C58.4,61,58.1,58.9,57.4,56.9z M42,61.3c-0.2,0.2-0.5,0.2-0.7,0.2c0,0.2,0,0.4,0,0.6
		c0,0.5-0.6,0.7-0.9,0.4c-0.2-0.2-0.4-0.4-0.6-0.5c-0.1,0.1-0.2,0.2-0.2,0.3c-0.3,0.3-0.8-0.1-0.5-0.4c0.1-0.1,0.2-0.2,0.2-0.3
		c-0.1-0.1-0.2-0.2-0.3-0.2c-0.3-0.3-0.1-1,0.4-0.9c0.2,0,0.3,0,0.5,0c0.1-0.1,0.1-0.2,0.2-0.4c0.1-0.3,0.7-0.3,0.8,0
		c0.1,0.1,0.1,0.3,0.2,0.4c0.4,0,0.7,0,0.9,0.3C42.2,60.9,42.2,61.2,42,61.3z M46.9,63.1c-0.1,0-0.2,0.1-0.3,0.1
		c0,0.1,0.1,0.2,0.1,0.3c0.2,0.5-0.4,0.8-0.8,0.6c-0.2-0.1-0.4-0.2-0.6-0.3c-0.3,0.2-0.6,0.4-1,0.6c-0.5,0.2-0.8-0.5-0.5-0.8
		c0,0,0,0,0,0c-0.1-0.1-0.1-0.2,0-0.3c0,0,0.1-0.1,0.1-0.1c-0.1-0.1-0.3-0.2-0.4-0.3c-0.4-0.3-0.3-1,0.3-1c0.3,0,0.7,0,1,0
		c0.1-0.2,0.3-0.5,0.4-0.7c0.2-0.4,0.8-0.3,0.9,0.1c0.1,0.2,0.1,0.5,0.2,0.7c0.2,0,0.4,0,0.6,0.1C47.4,62.1,47.5,62.9,46.9,63.1z
		 M53.5,61.9c-0.2,0.2-0.5,0.4-0.7,0.6c0.1,0.1,0.1,0.2,0.2,0.4c0.2,0.4-0.1,0.9-0.6,0.8c-0.1,0-0.3-0.1-0.4-0.1
		c-0.2,0.3-0.4,0.6-0.6,0.8c-0.4,0.3-0.9,0-0.8-0.5c0-0.1,0.1-0.2,0.1-0.3c-0.1-0.1-0.1-0.1-0.1-0.3c0,0,0,0,0-0.1
		c-0.2,0-0.3,0-0.5-0.1c-0.5,0-0.8-0.7-0.3-1c0.3-0.1,0.6-0.3,0.9-0.4c0-0.3,0.1-0.5,0.1-0.8c0-0.5,0.6-0.6,0.9-0.2
		c0.1,0.2,0.3,0.4,0.4,0.6c0.3-0.1,0.6-0.2,0.9-0.3C53.5,60.9,54,61.6,53.5,61.9z M57.9,60.2c-0.1,0.2-0.2,0.3-0.3,0.5
		c0,0,0,0.1,0.1,0.1c0.3,0.4-0.2,0.8-0.6,0.7c-0.1,0.2-0.3,0.4-0.4,0.6c-0.4,0.5-1.2,0.1-1-0.4c0-0.2,0-0.3,0-0.5
		c-0.1,0-0.2,0-0.3,0c-0.6,0-0.6-0.8-0.1-1c0.2-0.1,0.3-0.1,0.5-0.2c0-0.2,0-0.4,0-0.5c-0.1-0.5,0.6-0.6,0.9-0.2
		c0.1,0.1,0.2,0.3,0.3,0.4c0.1-0.1,0.3-0.1,0.4-0.2C57.8,59.2,58.1,59.8,57.9,60.2z"/>
	<path fill="#073B3A" d="M51.3,49.5c0.2-0.6,0-1.3-0.3-1.8c-0.3-0.6-0.7-1.1-1.2-1.4c0.7-2,0.9-4.1,0.7-6.2
		c-0.1-0.8-0.1-2.7-1.4-2.6c-1.1,0.1-1.4,2.1-1.6,2.8c-0.4,1.9-0.4,3.9,0.1,5.8c-1.1,0.6-1.6,2-1.3,3.3c-3.1,0.4-6.2,2.6-7.8,5.1
		c-2.6,4-2.7,10,0.2,13.9c3,3.9,9.2,5.3,13.6,3.3c4.2-1.9,7-6.3,6.9-10.9C59.1,56.5,56,50.4,51.3,49.5z"/>
	<path fill="#073B3A" d="M48,42.8c0.1-0.9,0.1-3.1,1.1-3.7c0.4-0.5,0.6-0.4,0.5,0.3c0,0.4,0.1,0.7,0.1,1.1c0.1,0.6,0.1,1.2,0,1.8
		c-0.1,1.3-0.3,2.6-0.7,3.8c0,0,0,0,0,0c-0.3,0-0.6,0-0.9,0C48,45,47.9,43.9,48,42.8z"/>
	<path fill="#073B3A" d="M47.3,49.4c0.1,0,0.1,0,0.1-0.1c0,0,0,0.1,0,0.1c-0.2,0-0.5,0-0.7,0c0-0.1,0-0.1,0-0.2
		C47,49.4,47.1,49.4,47.3,49.4z"/>
	<path fill="#FFFFFF" d="M42.5,52.2c2.4-1.5,4.8-1.7,7.6-1.7c0.1,0,0.2-0.1,0.3-0.2c2.8,0.3,5.2,2.9,6.4,5.3
		c0.1,0.2,0.2,0.5,0.4,0.7c0,0-0.1,0-0.1,0c-2.9,1.8-5.6,2.9-9.1,2.9c-3.4,0-6.3-1.1-9.4-2.4C39.4,55,40.7,53.3,42.5,52.2z"/>
	<path fill="#FFFFFF" d="M46.7,71.6c-2.9-0.4-6.2-1.8-7.7-4.5c-0.6-1.1-1-2.2-1.2-3.4c5.9,3.8,13.8,4,20,0.5
		C56.4,68.9,51.6,72.3,46.7,71.6z"/>
	<path fill="#FFFFFF" d="M57.9,63.1c-6.3,3.6-13.9,3.7-20.2,0.1c-0.2-1.4-0.1-2.9,0.2-4.3c0.1-0.5,0.3-1.1,0.5-1.6
		c5.4,3.4,14,4.2,19-0.3c0.7,1.9,1,4,0.7,6.1C58,63,58,63,57.9,63.1z"/>
	<path fill="#073B3A" d="M41.1,60.5C41,60.3,41,60.2,40.9,60c-0.1-0.3-0.7-0.3-0.8,0c-0.1,0.1-0.1,0.2-0.2,0.4c-0.2,0-0.3,0-0.5,0
		c-0.5,0-0.7,0.6-0.4,0.9c0.1,0.1,0.2,0.2,0.3,0.2c-0.1,0.1-0.2,0.2-0.2,0.3c-0.2,0.3,0.3,0.7,0.5,0.4c0.1-0.1,0.2-0.2,0.2-0.3
		c0.2,0.2,0.4,0.4,0.6,0.5c0.4,0.3,0.9,0.1,0.9-0.4c0-0.2,0-0.4,0-0.6c0.2,0,0.5,0,0.7-0.2c0.2-0.1,0.1-0.4,0-0.6
		C41.8,60.5,41.4,60.5,41.1,60.5z"/>
	<path fill="#073B3A" d="M46.8,62.1c-0.2,0-0.4,0-0.6-0.1c-0.1-0.2-0.1-0.5-0.2-0.7c-0.1-0.4-0.7-0.5-0.9-0.1
		c-0.1,0.2-0.2,0.5-0.4,0.7c-0.3,0-0.7,0-1,0c-0.6,0-0.7,0.7-0.3,1c0.1,0.1,0.3,0.2,0.4,0.3c0,0-0.1,0.1-0.1,0.1
		c-0.1,0.1-0.1,0.2,0,0.3c0,0,0,0,0,0c-0.3,0.3,0,1,0.5,0.8c0.4-0.1,0.7-0.4,1-0.6c0.2,0.1,0.4,0.2,0.6,0.3c0.4,0.2,1-0.1,0.8-0.6
		c0-0.1-0.1-0.2-0.1-0.3c0.1,0,0.2-0.1,0.3-0.1C47.5,62.9,47.4,62.1,46.8,62.1z"/>
	<path fill="#073B3A" d="M53,61c-0.3,0.1-0.6,0.2-0.9,0.3c-0.1-0.2-0.3-0.4-0.4-0.6c-0.3-0.4-0.9-0.3-0.9,0.2c0,0.3,0,0.5-0.1,0.8
		c-0.3,0.1-0.6,0.2-0.9,0.4c-0.5,0.2-0.2,0.9,0.3,1c0.2,0,0.3,0,0.5,0.1c0,0,0,0,0,0.1c0,0.1,0,0.2,0.1,0.3c0,0.1-0.1,0.2-0.1,0.3
		c-0.1,0.5,0.5,0.8,0.8,0.5c0.2-0.2,0.4-0.5,0.6-0.8c0.1,0,0.3,0.1,0.4,0.1c0.5,0.2,0.8-0.4,0.6-0.8c-0.1-0.1-0.1-0.2-0.2-0.4
		c0.2-0.2,0.5-0.4,0.7-0.6C54,61.6,53.5,60.9,53,61z"/>
	<path fill="#073B3A" d="M57.3,59.4c-0.1,0.1-0.3,0.1-0.4,0.2c-0.1-0.1-0.2-0.3-0.3-0.4c-0.2-0.3-0.9-0.3-0.9,0.2c0,0.2,0,0.4,0,0.5
		c-0.2,0.1-0.3,0.1-0.5,0.2c-0.5,0.2-0.5,1,0.1,1c0.1,0,0.2,0,0.3,0c0,0.2,0,0.3,0,0.5c-0.2,0.5,0.6,0.9,1,0.4
		c0.2-0.2,0.3-0.4,0.4-0.6c0.4,0.1,0.9-0.3,0.6-0.7c0,0,0-0.1-0.1-0.1c0.1-0.2,0.2-0.3,0.3-0.5C58.1,59.8,57.8,59.2,57.3,59.4z"/>
	<path fill="none" d="M75.4,69.9c-0.2,0-0.3-0.1-0.3-0.2c-2.3-0.5-5,1-6.7,2.4c-2.1,1.7-3.6,4.2-4.2,6.8c-1.1,5.6,2.9,10.7,8.5,11.5
		c5.4,0.7,9.9-2.7,10.9-7.9c0.6-2.8,0.8-5.6-0.9-8.1C81,71.7,78.2,70.6,75.4,69.9z M80.9,79.3c-1.5,1-2.9,2.1-4.4,3.1
		c0.3,1,0.5,2.1,0.8,3.1c0.1,0.4-0.3,0.9-0.7,0.5c-0.7-0.7-1.4-1.5-2.2-2.2c-1.3,0.9-2.7,1.9-4,2.8c-0.3,0.2-0.7,0-0.8-0.3
		c-0.1-0.1-0.2-0.3-0.1-0.4c0.1-0.2,0.1-0.3,0.2-0.6c0.4-1.6,0.9-3.1,1.5-4.6c-0.9-0.8-1.8-1.6-2.7-2.5c-0.4-0.3-0.1-0.9,0.4-0.8
		c1.2,0.1,2.3,0.2,3.5,0.3c0.5-1.3,1-2.6,1.6-3.9c0.2-0.4,0.7-0.3,0.8,0.1c0.3,1.3,0.6,2.7,0.8,4c1.7,0.1,3.5,0.3,5.2,0.4
		C81.2,78.4,81.3,79.1,80.9,79.3z"/>
	<path fill="none" d="M77.7,61.8c-0.7-1.5-1.1,1.1-1.2,1.7c-0.1,0.8-0.2,1.6-0.2,2.5C77,64.7,78.3,63.1,77.7,61.8z"/>
	<path fill="#073B3A" d="M77.5,69.5c0.1-0.8-0.1-1.8-0.7-2.3c1.1-1.4,2.1-3,2.3-4.8c0.1-1.1,0.1-3.2-1.3-3.5c-1-0.3-1.5,0.7-1.8,1.6
		c-0.4,0.4-0.6,0.9-0.4,1.5c-0.3,1.6-0.3,3.2,0,4.8c-1.1,0-1.6,1-1.8,2c-3.3-0.3-6.9,2.8-8.6,5.3c-2.7,3.9-3.1,9.5,0.1,13.3
		c2.9,3.5,7.7,4.8,12,3.5c4.9-1.5,7-5.6,7.6-10.4C85.5,75.2,82.3,70.9,77.5,69.5z"/>
	<path fill="#073B3A" d="M76.5,63.5c0.1-0.6,0.5-3.2,1.2-1.7c0.6,1.3-0.7,2.9-1.4,4.1C76.3,65.1,76.4,64.3,76.5,63.5z"/>
	<path fill="#FFFFFF" d="M83.6,82.4c-1.1,5.2-5.6,8.6-10.9,7.9c-5.6-0.8-9.6-5.8-8.5-11.5c0.5-2.7,2.1-5.1,4.2-6.8
		c1.7-1.4,4.4-2.8,6.7-2.4c0.1,0.1,0.1,0.2,0.3,0.2c2.9,0.7,5.6,1.8,7.3,4.4C84.3,76.8,84.2,79.6,83.6,82.4z"/>
	<path fill="#073B3A" d="M80.7,78.4c-1.7-0.1-3.5-0.3-5.2-0.4c-0.3-1.3-0.6-2.7-0.8-4c-0.1-0.4-0.6-0.5-0.8-0.1
		c-0.5,1.3-1.1,2.6-1.6,3.9c-1.2-0.1-2.3-0.2-3.5-0.3c-0.5,0-0.7,0.5-0.4,0.8c0.9,0.8,1.8,1.6,2.7,2.5c-0.5,1.5-1,3.1-1.5,4.6
		c-0.1,0.2-0.2,0.4-0.2,0.6c-0.1,0.1,0,0.3,0.1,0.4c0.1,0.3,0.4,0.5,0.8,0.3c1.3-0.9,2.7-1.9,4-2.8c0.7,0.7,1.5,1.4,2.2,2.2
		c0.4,0.4,0.8-0.1,0.7-0.5c-0.3-1-0.5-2.1-0.8-3.1c1.5-1,2.9-2.1,4.4-3.1C81.3,79.1,81.2,78.4,80.7,78.4z"/>
</g>
<g id="Goat_Highlights">
	<path fill="#FFFFFF" d="M194.2,277c-0.1-3.5-0.2-7.1-0.3-10.6c0-1.4-0.1-2.8,0.2-4.2c0.7-3.7,0.7-7.4-0.4-11.1
		c-0.2-0.7,0-1.3,0.1-1.9c0.9-4.9,0.7-9.8,0.4-14.8c-0.3-5.9-1.2-11.9,0.2-17.8c0.4-1.6,0.6-3.4,1.2-4.9c2.5-5.7,3-11.6,2.5-17.8
		c-0.4-5.5-2.2-10.1-6.5-13.7c-0.4-0.4-0.9-0.8-1-1.5c1.3-0.2,1.8,1.2,3.3,0.8c-0.9-1.2-1.7-2.1-2.8-3c-3.2-2.5-5.6-5.6-7.4-9.3
		c-2.3-4.6-5.6-8.2-11.1-8.9c-1.5-0.2-2.8-0.8-4.1-1.5c-1.2-0.6-2.5-1-3.9-0.9c0.3-0.3,0.6-0.5,0.9-0.9c-2.1,0-3.7,0-5.4,0
		c-0.6,0-3.8-1.5-3.1-2.2c0.9-0.9,0.3-1.3-0.5-1.4c-1.2-0.2-2.4-0.1-3.6-0.2c-2.3-0.2-4.3-1.1-6.1-2.6c-0.6-0.5-1.1-1-0.9-1.9
		c0.7-2.3-1-3.4-2.6-4.4c-1.3-0.8-2.7-1.3-4.1-1.7c-2.6-0.8-3.9-2.7-4.4-5.2c-0.4-1.9-0.6-3.9-1.1-5.8c-0.5-2-0.3-4,0.1-6.1
		c0.5-2.4,1-4.8,0.4-7.2c-0.2-0.9,0.1-1.4,0.8-1.9c1.7-1.1,2.2-2.4,1.2-4.3c-0.2-0.4-0.6-0.8-0.2-1.3c1.5-1.7,0.6-3.2,0-4.9
		c-0.8-2.5-1.5-5,0.5-7.4c1.2-1.5,1.1-3.3,0.4-5.1c-0.4-0.9-0.3-1.5,0.3-2.4c0.5-0.7-0.7-1.9-0.3-2.9c0.1-0.3,0.6-0.5,0.8-0.7
		c0.8-1.1,1.6-2.3,1.8-3.7c0.2-1.2-0.3-1.6-1.3-1.6c-2.2,0-3.5,0.6-4,1.7c-1-1.1-2.4-2.1-3.1-2.4c-1.4-0.5-1.5-1.3-0.9-2.4
		c2.6-4.4,5.6-8.2,11.2-8.7c1.1-0.1,2.1-0.6,3.2-1c1.1-0.4,1.7-1.1,1.3-2.4c-0.5-1.6,0.3-2.9,1.4-4c0.8-0.8,1.7-1.5,2.7-2
		c0.8-0.4,1.7-0.8,2.3-1.6c0.7-0.9,0.4-1.9-0.7-2.2c-0.5-0.2-1.1-0.1-1.7-0.1c-2.7,0-3.3-0.4-3.5-3.1c-0.1-1.2,0.1-2.3,0.8-3.2
		c2.3-3.1,4.8-6,8.3-7.8c2.4-1.2,4.8-2.4,7.5-2.8c1.2-0.2,2.2-0.7,2.8-1.7c1.4-2.5,3.6-4,5.9-5.5c0.6-0.4,1.2-0.7,1.4-1.6
		c0.9-3.6,2.3-6.9,4.6-9.8c0.6-0.8,1-1.8,1.4-2.7c0.3-0.8,0.8-1.7-0.2-2.2c-1-0.5-2.1-0.9-3.1,0.1c-0.2,0.3-0.5,0.6-0.7,0.9
		c-2.9,3.9-5.2,8.2-8.6,11.6c-1.2,1.2-2.4,2.1-4,2.2c-5,0.5-9.2,3-13.1,5.8c-3.4,2.4-6.4,5.5-8.9,9.1c-2.5,3.7-4.6,7.4-5.8,11.7
		c-0.2,0.7-0.5,1.2-1.2,1.4c-3.1,1.1-5.1,3.5-6.7,6.1c-1.5,2.3-2.9,4.8-4.4,7.1c-0.2,0.3-0.7,1-0.9,1.7c-0.6-1-1.1-2.1-1.9-3
		c-3.3-4.2-6.7-8.2-10.1-12.4c-2.1-2.7-4.8-4.3-8.1-5.1c-3.2-0.7-6.4-1.2-9.7-0.5c-1.5,0.3-3.2,0.3-4.7,0.5c-0.7,0.1-1-0.1-1.3-0.7
		c-1.3-2.9-4.1-4-6.5-5.5c-0.6-0.4-1.3-0.5-1.7-1.3c-1.2-2.2-3.2-3.4-5.3-4.3c-0.7-0.3-1.6-0.3-1.8-1.1c-0.6-2-2-3.6-2.3-5.7
		c-0.5-3.1-2.7-4.4-5.7-3.6c-5.3,1.4-10.6,2.8-15.5,5.6c-1,0.6-2.1,0.8-3.2,1c-0.6-1.7-0.8-3.5-1.9-4.7c-2.8-3.1-6.2-5.6-9.7-8
		c-1.6-1-3-0.7-4.4,0.4c-1.2,1-1.3,1.9,0,2.6c2.3,1.2,4.1,3,6.2,4.4c3.7,2.4,5,5.9,4.1,10.2c-0.3,1.6,0.3,2.5,2,2.5
		c1.1,0,2.2-0.2,3.3-0.3c0.9,0,1.7,0.1,1.6,1.3c0,1.4,0.9,1.7,2.1,1.6c0.5-0.1,0.9-0.2,1.4-0.2c4.6-0.6,9.1-0.3,13.4,1.5
		c2.2,0.9,3.9,2.5,5.9,3.7c2,1.3,3.4,2.9,3.9,5.2c0.5,2.2,0,4.1-1.5,6c-1.3,1.6-0.8,2.9,1.1,3.8c1.4,0.6,2.8,0.9,4.3,1.1
		c1.7,0.3,3.7,0,5.2,1c2.5,1.7,4.9,1.1,7.5,0.3c2.9-1,5.8-1.2,8.8-1.3c3.7-0.1,8.6,3.6,9.8,7.2c0,0-0.1,0.1-0.2,0.2c0,0,0,0,0,0
		c0,0,0,0,0,0c-0.2,1.6-1.6,2.2-2.6,3c-0.8,0.6-2.2,1.3-3.4-0.1c-0.9-1.1-2.4-1.8-3.8-1.3c-2.3,0.8-4.3,0-6.5-0.4
		c-0.7-0.1-1.3-0.3-1.8,0.2c-0.7,0.7,0,1.2,0.3,1.7c2,3,4.1,6,5.4,9.4c0.3,0.8,1.2,1.8,2.2,2.2c-0.2,0.1-0.3,0.2-0.5,0.3
		c-3.1,2.4-5.6,5.2-6.9,9c-2.3,6.9-3,14.2-5.5,21c-0.3,0.9-0.4,2-0.5,3c-0.1,0.4-0.2,1,0.1,1c1.8,0.2,0.9,1.5,0.9,2.3
		c0.2,4.3-0.7,8.5-1.8,12.7c-1.3,4.9-2.3,9.8-2.1,14.9c0,1-0.1,2-0.4,3c-1.1,3.6-2.1,7.2-3.1,10.7c-1,3.6-0.9,7.2-0.2,10.8
		c0.4,1.7,1.1,3.4,1.2,5.2c0.2,3.3,1.5,6.3,2.7,9.4c1.9,4.7,4.9,8.8,7.6,13c2.7,4.1,4.8,8.3,3.3,13.4c-0.1,0.4-0.1,0.9-0.1,1.4
		c0,0.8,0.2,1.5,1.2,1.8c1-1.8,0.7-4.1,1.8-6c1.2,1.7,2,3.2,2,5.1c0,3.5,1.6,6.9,1.2,10.5c-0.1,0.5,0.2,1.1,0.5,1.6
		c1.5,2.3,1.8,5.1,2.6,7.6c1.4,4.4,1.8,9-0.8,13.2c-0.8,1.3-1.5,2.6-2.4,3.8c-2,2.9-2.9,3.5-6.4,3.9c-2.2,0.2-4.3,0.5-6.2,1.6
		c-3.3,1.9-6.9,3.4-10.3,5.1c-0.4,0.2-0.9,0.4-0.6,1c0.2,0.6,0.8,0.5,1.2,0.3c2.8-2.1,6.4-2.4,9.4-4.1c2.2-1.2,4.5-1.7,6.9-2.1
		c4.4-0.9,8.9-0.3,13.4-0.8c1.2-0.1,6-7.7,7.1-7.3c1.1,0.3-2.5-9.6-1.7-12.4c0.4-1.4-0.4-19.3,0-20.8c0.4-1.6,2.9-10.5,3.3-11.7
		c0.7-1.9,7.8,13.5,8.6,13.9c0.4,0.2,4,17.1,4.3,20.9c0.6,7.7-4.9,20.1-3.8,20.2c4.8,0.3,8.2,1.4,12.9,2c4.7,0.5-4.5-25.3-0.7-25
		c1.3,0.1-1.6-25.5,0.7-23.1c1.4,1.4,8.7,1.9,10.3,3.8c0.8,0.9,1.3,10.1,3.4,17.4c2.1,7.2,5.7,12.6,6.5,13.6
		c1.1,1.4,1.6,5.7,2.5,7.3c2.8,5.1-3.8,10.3-1.2,11.3c3.2,1.2,4.7,1.9,8.2,2.4c0,0,1.7-7.7,0-5.4c-0.1,0.2,3.3-6.4,3.5-9.3
		c1.8-1-7.6-12.3-4.6-11.2c-0.5,1.8-0.4-15.9-0.9-14.1c1.3-1,6.9-12.6,8-13.8c0.9-0.9,9.3,16.1,10.5,16.3c3.5,0.5-1.2,19,2.2,20.2
		c1.7,0.6,1.7,18.2,3.6,21.3c0.6,1,3.1,1.5,6.3,2.4C192.9,280.6,194.3,280.5,194.2,277z"/>
</g>
<g id="Goat_thing">
	<g>
		<path fill="#073B3A" d="M110.2,259.4c0.8,1.4,0.3,2,1,3.5c0.2-0.4,0.3-0.8,0.5-1.3c-0.6-0.3-0.9-0.8-1-1.5
			c-0.1-0.5-0.2-1.1-0.5-1.4C110.1,259,110.2,259.3,110.2,259.4z"/>
		<path fill="none" d="M110.2,259.4c0.8,1.4,0.3,2,1,3.5c0.2-0.4,0.3-0.8,0.5-1.3c-0.6-0.3-0.9-0.8-1-1.5c-0.1-0.5-0.2-1.1-0.5-1.4
			C110.1,259,110.2,259.3,110.2,259.4z"/>
	</g>
	<path fill="#073B3A" d="M95.4,256.9c-0.8,0.6-1.6,1.2-1.6,2.6C94.7,258.6,95.3,257.9,95.4,256.9z"/>
	<path fill="#073B3A" d="M77,259.7c1-0.5,1.5-1.1,1.4-1.9C77.9,258.2,77.3,258.7,77,259.7z"/>
	<path fill="#073B3A" d="M78.4,257.7C78.4,257.7,78.4,257.7,78.4,257.7L78.4,257.7c0.1-0.1,0.1-0.1,0.1-0.2c0,0-0.1,0-0.1,0
		C78.4,257.7,78.4,257.7,78.4,257.7z"/>
	<path fill="#FFFFFF" d="M29.7,25.6c1.6,0,2.2,0.7,2.9,1.4C31.4,27.3,30.8,26.7,29.7,25.6z"/>
	<path fill="#FFFFFF" d="M33.3,28.4c1.2,0,1.9,0.2,2.3,1.4C34.6,29.7,34,29.3,33.3,28.4z"/>
	<path fill="#FFFFFF" d="M167.9,28.7c0.4-0.6,0.9-1,1.6-0.8C169.3,28.7,168.6,28.7,167.9,28.7z"/>
	<path fill="#FFFFFF" d="M169.9,26.4c0.8-0.9,0.8-0.9,1.9-1.4C171.7,26.8,170.9,26.7,169.9,26.4z"/>
	<path fill="#FFFFFF" d="M171.6,23.8c0.6-1.1,1.3-1.6,2.5-2C173.7,23.1,172.9,23.5,171.6,23.8z"/>
	<path fill="#FFFFFF" d="M175.3,19.8c-0.1,0-0.4-0.2-0.4-0.2c0.2-0.8,0.5-1.5,1.8-1.5C176.4,19,176,19.6,175.3,19.8z"/>
	<g>
		<path fill="none" d="M110.2,259.4c0.8,1.4,0.3,2,1,3.5c0.2-0.4,0.3-0.8,0.5-1.3c-0.6-0.3-0.9-0.8-1-1.5c-0.1-0.5-0.2-1.1-0.5-1.4
			C110.1,259,110.2,259.3,110.2,259.4z"/>
		<path fill="#073B3A" d="M84.7,181.9c0.8,0.7,0.6,2.4,0.9,3.6c0.5-1.3,0.4-4.2,0-4.4c-1.5-1-0.9-2.4-1-3.8
			c-0.1-0.9,0.3-1.9-0.9-2.6C84.6,177.1,82.2,179.6,84.7,181.9z"/>
		<path fill="#073B3A" d="M84.2,165.7c-1.4,2.1-2.3,6.9-2,12.1C83,175.9,84.3,167.2,84.2,165.7z"/>
		<path fill="#073B3A" d="M89.8,193.1c0-2.3-0.4-4.6-2-6.4C87.7,189.1,88.9,191.1,89.8,193.1z"/>
	</g>
	<path fill="#073B3A" d="M97.1,253.2c-0.3-0.4-0.8-0.8-1.2-1.1c-2.6-2-5.4-3.6-8.2-5.3c-3.1-1.9-6.5-2.8-9.7-4.4
		c-1.2-0.6-2.7-0.8-4-1.2c-2.3-0.5-4.6-0.5-6.7,0.9c-1.2,0.7-2.5,1.2-3.8,1.8c-1.8,0.9-3.6,2-4.9,3.7c-0.8,1.1-1.9,2-3,2.9
		c-2.6,2.1-5.3,4.3-5.6,8c-0.2,2.1-1.2,3.6-2.6,5c-0.9,0.8-1.7,1.7-1.5,3.3c1.3-0.9,2-2.3,3.3-2.8c1.9-0.8,2.4-2.4,2.7-4.2
		c0.4-2.8,1.7-5.2,3.9-7.2c2.2-1.9,4.2-3.9,6.4-5.8c2.7-2.3,5.8-3.5,9.9-4c-1.7,2-3.4,3.2-4.3,5.1c1.6-1.2,3-2.5,4.4-3.7
		c1.5-1.3,1.6-1.3,3.8,0c-2.4,2.9-5.4,5.3-7.4,8.5c0.9-0.6,1.7-1.3,2.5-2.1c1.7-1.7,3.3-3.5,5.3-4.9c2-1.4,2-1.4,4.3,0.3
		c-3.1,3.7-6.7,6.9-9.2,11c3-2.8,5.7-5.9,8.6-8.8c2.1-2.2,2.7-2.2,5.3-0.5c0.3,0.2,0.5,0.5,1.1,1c-0.6,0.5-1.2,0.8-1.6,1.3
		c-2.3,2.4-4.7,4.6-6.5,7.5c1-0.2,1.6-1.1,2.2-1.8c1.8-1.9,3.7-3.7,5.6-5.4c1.3-1.1,2.2-0.9,3.4-0.3c1.9,1,2,1.2,0.7,2.8
		c-1.2,1.5-2.3,2.9-3.5,4.4c-1.2,1.5-2.4,3-3.6,4.6c1.4-0.8,2.4-1.9,3.3-3c1.5-1.8,3-3.6,4.5-5.3c0.9-1.1,1.8-1.5,3.1-0.4
		c0.6,0.5,1.4,1,2.3,1C97.1,254.1,97.5,253.7,97.1,253.2z"/>
	<path fill="#073B3A" d="M128.4,319.3c-0.5-0.3,0.2-0.8,0.4-1.1c0.5-0.8,1.5-1.3,1.8-2.7c-1.7,0.7-2.2,2.1-3.1,3.1
		c-2.5,3-5.3,5.5-9.3,6c-0.9,0.1-1.3,0.5-1.8,1.1c-1.9,2.1-3.9,4.1-5.9,6.1c-1.5-1.5-1.9-3.5-3.6-4.5c-2.9-1.7-5.6-3.8-8.9-4.7
		c-0.8-0.2-1.4-0.9-2-1.5c-1.5-1.4-2.7-3.2-4.5-4.2c-3.6-2-7.2-3.9-10.9-5.7c-1.1-0.6-2.3-0.7-3.5-0.5c-2.8,0.5-5.7,0.9-8.5,1.5
		c-2.6,0.6-5.1,1.2-7.7,1.1c-3.3-0.2-5.3,1.9-7.4,3.9c-0.5,0.5-1.1,1.3-0.4,2.1c0.8-0.1,1-0.7,1.3-1.1c2.2-2.2,4.4-4,7.8-3.4
		c1.3,0.2,2.8,0.2,4.2-0.3c2.9-1,6-1.2,9.1-1.8c2.3-0.4,4.5-0.1,6.5,1.2c0.7,0.4,1.5,0.7,2.2,1.1c3.7,2,7.5,3.7,10.4,6.9
		c1.2,1.3,2.8,2.1,4.5,2.8c3.1,1.3,6.2,2.9,8.2,5.6c2,2.6,4.3,4.9,6,7.7c0.7,1.2,1.4,2.7,3.4,2.9c-0.3-1.7,1.3-2.4,2.4-3.9
		c-0.7,0.4-1,0.5-1.2,0.6c-1.2,1.2-2.3,1.1-3.3-0.2c-0.4-0.4-0.8-0.8-1.1-1.2c-2.4-3.6-2.7-2.7,0-6c0.8-0.9,1.6-1.8,2.4-2.7
		c0.7-0.8,1.6-1.3,2.7-1.3c2.3,0,4.1-1.1,5.8-2.5c1.1-0.9,2.2-1.7,3.3-2.6C128.2,320.7,130.7,321.1,128.4,319.3z"/>
	<path fill="#073B3A" d="M191.6,332.8c-0.8-3.2-2.8-5.7-4.7-8.2c-1.1-1.4-2.5-2.8-4.6-3c-0.6-0.1-1.2-0.5-1.8-0.8
		c-3.3-1.7-6.6-3-10.2-3.7c-1.6-0.3-3.3-0.7-4.8-1.6c-1.9-1.1-3.3-2.6-4.3-4.6c-1.7-3.5-4.5-5.2-8.5-5.4c-4.3-0.2-8.3,0-12.2,2.2
		c-2.4,1.3-3.4,2.5-3.2,5.4c1.1-0.8,1.5-1.9,2.2-2.9c0.5-0.8,1.1-1.6,2-1.9c2.9-0.8,5.8-1.7,9-1.6c4.3,0.2,7.8,1.4,9.5,5.8
		c1.2,3.1,3.8,4.8,7,5.6c4.6,1.1,9,2.6,13.4,4.1c2.6,0.9,5.4,1.8,6.9,4.5c1.5,2.9,3.3,5.7,4.2,8.8c0.3,1,0.5,2,0.8,3
		c0.2,0.6,0.2,1.8,1.2,1.5c0.8-0.3,0.1-1.1-0.1-1.7C192.9,336.5,192.1,334.7,191.6,332.8z"/>
	<path fill="#073B3A" d="M43.2,269.2c-1,2-2.9,3.4-3.4,5.7c1.7-2,3.3-4,5.1-5.9c0.7-0.7,0.5-1.4,0.1-2c-0.4-0.7-1.1-0.6-1.7-0.2
		c-0.9,0.6-1.9,0.7-3,0.6c-1.4-0.1-2.8,0.2-4.1,0.5c-3.5,0.8-6.7,2.3-9.8,3.9c-1.8,1-3.8,1.9-5,3.9c-2.7,4.2-4.5,8.8-7,13
		c-0.8,1.4-1.1,3.2-1.6,4.8c-0.3,0.8-0.3,1.6,0.7,2.3c0.6-1.5,1-3,1.7-4.2c2.6-4.4,5-8.9,7.3-13.5c1.4-2.8,4-4.3,6.5-6
		c0.3-0.2,1-0.3,1-0.2c0.6,1.4,1.3,0.6,1.8,0c1.3-1.8,3.1-1.7,5.4-2c-1.6,2.1-2.9,3.8-4.3,5.6c1.7-0.9,2.9-2.2,3.9-3.6
		C38.2,269.6,40.3,268.7,43.2,269.2z"/>
	<path fill="#073B3A" d="M232.1,313.1c-3.5-3.2-3.6-3-1.9-7c-1.2,0.1-1.1,1.8-2.2,1.7c-2.6-4.1-2.9-5.1-2.1-7.8
		c-0.9,0.8-1.6,1.4-2.6,0.6c-1.7-1.4-0.9-2.9-0.2-4.4c-0.9,0-1.5,1.3-1.9,0.7c-1.4-1.7-4.3-1.7-4.7-4.3c-0.8,0.2-1.6,0.4-2.5,0.6
		c0.4,0.7,0.6,1.5,1.5,1.5c0.9,0.1,1.6,0.7,2.1,1.2c2.7,2.9,5.5,5.8,7,9.7c0.8,2.2,1.9,4.1,3.5,5.7c3.1,3.1,5.9,6.5,8.6,9.9
		c1.2,1.6,2.8,2.8,4.4,4.1c0.2-0.7-0.1-1.1-0.3-1.5C238.8,319.5,235.6,316.2,232.1,313.1z"/>
	<path fill="#073B3A" d="M216.5,292.6C216.5,292.6,216.5,292.6,216.5,292.6C216.5,292.7,216.6,292.7,216.5,292.6L216.5,292.6z"/>
	<path fill="#073B3A" d="M151.8,327.3c-0.7-0.7-1.1-1.7-2-2.3c-2.9-2-2.9-2-0.7-4.7c0.3-0.3,0.6-0.7,0.9-1.1
		c-0.8,0.2-1.2,0.7-1.7,1.1c-2.6,2.3-2.6,2.3-5.2,0c-0.2-0.2-0.5-0.3-0.6-0.5c-1.6-2.4-4.2-2.5-6.7-2.6c-2-0.1-4.3,1.3-5.3,3.4
		c2.5-1.4,4.8-1.6,7.2-1.1c1.1,0.3,2.1,0.5,2.9,1.4c1.5,1.5,3,3.1,4.8,4.2c2.8,1.7,5.1,3.7,6.3,6.8c0.3,0.9,1,1.6,2.2,0.9
		c-0.2-1.4-1.9-2.4-1.6-3.7c0.4-1.4,1.7-2.4,2.7-3.4c0.2-0.2,0.2-0.3,0.1-0.5C153.9,325.6,153.2,327,151.8,327.3z"/>
	<path fill="#073B3A" d="M68.5,273.7c-2.4,0.7-3.6,2.6-4.6,4.6c-1.9,3.7-4.6,6.7-7.4,9.7c-2.2,2.3-4.4,4.7-6.8,7
		c1.4-0.2,2.3-1,3.3-1.9c1.4-1.3,2.9-2.6,4.2-4.1c2.7-2.8,5.4-5.7,7.5-9c1.3-2,2.5-3.8,4.6-5.1c1.2-0.7,2.4-1.9,2.5-3.8
		C70.1,271.6,69.8,273.3,68.5,273.7z"/>
	<path fill="#073B3A" d="M125.2,348.9c0.1-1.1,1.2-1.1,1.3-2c-0.9,0.3-1.7,0.6-2.6,0.9c-0.4,0.2-0.9,0.3-1.3-0.2
		c-0.6-0.8-1.4-1.6-1.7-2.5c-0.3-0.9,0.9-1.2,1.4-1.9c0.1-0.2,0.5-0.4-0.1-0.7c-1.2,0.8-2.5,2.3-4.2,0.7c-0.4,0.9-0.1,1.5,0.5,1.9
		c1,0.6,1.6,1.6,2.1,2.5c0.9,1.7,2.3,2.6,4.1,3.1c0.9,0.2,1.7,0.6,2.6,1c0.4,0.2,0.9,0.4,1.2-0.1c0.2-0.4-0.1-0.9-0.4-1.2
		C127.2,349.6,126.1,349.4,125.2,348.9z"/>
	<path fill="#073B3A" d="M49.4,322.2c-2.1,2.6-4.2,5.2-6.7,7.5c-0.4,0.4-0.7,1.1-0.9,1.7c-0.8,2.1-2,3.9-3.7,5.5
		c-0.7,0.7-1.6,1.3-2,2.3c-0.1,0.2,0,0.6,0.1,0.8c0.2,0.3,0.5,0.3,0.7,0c1.8-1.7,3.9-3.2,5-5.6c1.4-3.2,3.3-6,5.7-8.6
		c1.1-1.2,2.2-2.5,3.3-3.8C50.1,321.5,49.7,321.8,49.4,322.2z"/>
	<path fill="#073B3A" d="M161.9,336.8c-1.7-1-3.4-1.8-5.1-2.7c0.1-1.1,1.2-1.5,1.2-2.5c-3.2,2-3.2,3.8,0,5.5
		c1.4,0.8,2.9,1.4,4.2,2.3c0.5,0.3,1.1,0.7,2.2,0.1c-0.7-1.1-0.7-2.4,0.5-3.7C163.4,336.1,163.1,337.5,161.9,336.8z"/>
	<path fill="#073B3A" d="M2.9,317.7c-0.8,3.3-1.6,6.5-2.7,9.7c-0.2,0.4-0.4,1,0.5,1.6c1.7-4.5,4.3-8.6,4.3-13.8
		C3.3,315.5,3.1,316.7,2.9,317.7z"/>
	<path fill="#073B3A" d="M9.8,302.7c-0.4,0.1-0.8,0.5-1,1c-0.6,2.4-1.6,4.7-2.6,7c-0.1,0.2,0,0.6,0.2,0.7c0.3,0.3,0.7,0.1,0.9-0.2
		c1.1-2.3,2.6-4.5,3.2-7.1c0.1-0.3,0.1-0.6,0-0.8C10.5,303,10.4,302.8,9.8,302.7z"/>
	<path fill="#073B3A" d="M111.3,298.5c3.2-2.5,5.9-5.4,8.2-8.6c-0.2-0.2-0.4-0.3-0.6-0.5C116.4,292.4,113.9,295.4,111.3,298.5z"/>
	<path fill="#073B3A" d="M115.7,308.7c2.3-2.8,4.3-5.3,6.4-7.9C120.1,301.6,117,305.3,115.7,308.7z"/>
	<path fill="#073B3A" d="M115.7,301.9c2.3-2.6,4.2-4.7,6.1-6.9c-0.1-0.1-0.3-0.3-0.4-0.4C119.2,296.3,116.6,299.5,115.7,301.9z"/>
	<path fill="#073B3A" d="M210.9,370.9c1.2,2.3,3.2,3.5,4.4,5.5C214.3,373.3,213.4,372.1,210.9,370.9z"/>
	<path fill="#073B3A" d="M185.8,287.6c-2.4,1.6-3.7,3.7-4.9,5.7C182.6,291.7,184.4,290.1,185.8,287.6z"/>
	<path fill="#073B3A" d="M167,344.9c0.6,1.6,1.7,2.8,3.4,4C169.9,346.7,169.2,345.2,167,344.9z"/>
	<path fill="#073B3A" d="M123.4,315c1.3-2,3.6-3.3,4.4-5.7C125.8,310.8,124.4,312.8,123.4,315z"/>
	<path fill="#073B3A" d="M200.1,352.8c-0.1-2.6-0.5-3.6-2.4-5.5C198,349.7,198.7,351.4,200.1,352.8z"/>
	<path fill="#073B3A" d="M115.6,279.2c-1.5,1.9-2.7,3.4-4,5.1C113.8,283.5,115.1,281.9,115.6,279.2z"/>
	<path fill="#073B3A" d="M120.6,309.7c1.8-0.7,3.1-2.1,4-4.4C122.9,306.7,121.7,308.2,120.6,309.7z"/>
	<path fill="#073B3A" d="M29.9,351.1c0.2,0.1,0.4,0.2,0.5,0.3c0.8-1.3,1.6-2.5,2.8-4.3C30.5,347.7,31,350,29.9,351.1z"/>
	<path fill="#073B3A" d="M249.7,333.4c0.3,1.5,1.1,2.7,2.6,3.7C251.9,335.4,251,334.3,249.7,333.4z"/>
	<path fill="#073B3A" d="M112.3,278.3c-0.6,0.8-1.1,1.6-1.7,2.4c0.1,0.1,0.2,0.2,0.3,0.3c0.8-0.6,1.5-1.2,2.3-1.8
		c0.3-0.3,0.7-0.7,0.3-1.2C113,277.5,112.6,277.9,112.3,278.3z"/>
	<path fill="#073B3A" d="M183.3,296.9c-1.3,0.9-2.1,2.1-2.8,3.4C181.8,299.4,182.6,298.2,183.3,296.9z"/>
	<path fill="#073B3A" d="M174.2,356.8c-0.4-1.6-1.2-2.9-2.3-4.1C172,354.4,173,355.6,174.2,356.8z"/>
	<path fill="#073B3A" d="M117.9,283.9c-1.4,0.9-2.5,1.9-2.9,3.5C116.5,286.6,117.5,285.5,117.9,283.9z"/>
	<path fill="#073B3A" d="M115.1,287.4C115,287.4,115,287.4,115.1,287.4l0,0.1C115,287.5,115,287.4,115.1,287.4z"/>
	<path fill="#073B3A" d="M113.1,289.2c-1,1.1-2.3,1.9-2.9,3.4C111.3,291.6,112.9,291,113.1,289.2z"/>
	<path fill="#073B3A" d="M283,325.1c0.5,0.8,1.2,1.5,2.6,1.6C284.8,325.6,284.1,325,283,325.1z"/>
	<path fill="#073B3A" d="M47.3,267.8c-0.7,0.1-1.2,0.4-1.2,1.2c0.1,0.3,0.2,0.6,0.5,0.6c0.7-0.1,1.2-0.4,1.4-1.1
		C48.2,267.9,47.7,267.8,47.3,267.8z"/>
	<path fill="#073B3A" d="M233.6,312.8c1-0.6,1.3-1.3,1.4-2.1C234.3,311.1,233.7,311.6,233.6,312.8z"/>
	<path fill="#073B3A" d="M269.8,315.6c-0.4-0.1-0.6,0.1-0.5,0.4c0.1,0.6,0.6,0.8,1.1,1c0.4,0.1,0.5-0.2,0.5-0.4
		C270.8,315.9,270.2,315.7,269.8,315.6z"/>
	<path fill="#073B3A" d="M216.5,292.6C216.5,292.6,216.6,292.6,216.5,292.6C216.6,292.6,216.6,292.6,216.5,292.6
		C216.6,292.5,216.5,292.6,216.5,292.6z"/>
	<path fill="#073B3A" d="M218.3,290.4c-0.7,0.6-1.6,1-1.7,2.1C217.5,292.1,217.9,291.3,218.3,290.4z"/>
	<path fill="#073B3A" d="M239.1,317.8c1.2-0.6,1.5-1.4,1.8-2.2C240,315.8,239.4,316.5,239.1,317.8z"/>
	<path fill="#073B3A" d="M172.2,348.6c0.2-0.3,0.4-0.5,0.8-1c-0.5,0.4-0.8,0.5-1,0.8c-0.2,0.2-0.5,0.4-0.1,0.6
		C171.9,349,172.1,348.8,172.2,348.6z"/>
	<path fill="#073B3A" d="M249.7,322.7c-0.2,0.2-0.4,0.4-0.5,0.6c0,0.3,0.2,0.4,0.4,0.2c0.2-0.2,0.4-0.4,0.5-0.6
		C250.1,322.6,249.9,322.5,249.7,322.7z"/>
	<path fill="#073B3A" d="M44,277.7c-0.8,0.1-0.8,0.8-1.1,1.3C43.5,278.7,44.1,278.5,44,277.7z"/>
	<path fill="#073B3A" d="M113.1,304c0.7,0.1,0.9-0.4,0.9-1C113.7,303.3,113.4,303.7,113.1,304z"/>
	<path fill="#073B3A" d="M114.7,309.7c-0.6,0.3-0.9,0.8-1,1.4C114,310.7,114.8,310.6,114.7,309.7z"/>
	<path fill="#073B3A" d="M114.9,287.5c-0.9,0.1-1.4,0.7-1.7,1.5C114.4,289.2,114.7,288.4,114.9,287.5z"/>
	<path fill="#073B3A" d="M115,287.5C115,287.5,115,287.5,115,287.5C115,287.5,115,287.5,115,287.5L115,287.5z"/>
	<path fill="#073B3A" d="M113.3,289.1C113.2,289.1,113.2,289.1,113.3,289.1L113.3,289.1c-0.1,0.1-0.1,0.1-0.1,0.2
		C113.2,289.2,113.2,289.2,113.3,289.1C113.2,289.1,113.3,289.1,113.3,289.1z"/>
	<path fill="#073B3A" d="M118.8,312.2C118.8,312.2,118.8,312.2,118.8,312.2c0.1-0.1,0-0.1,0-0.1
		C118.8,312.2,118.8,312.2,118.8,312.2z"/>
	<path fill="#073B3A" d="M117.6,314.1c0.5-0.7,1.2-1.1,1.2-1.9C118.3,312.7,117.7,313.1,117.6,314.1z"/>
	<path fill="#073B3A" d="M118.9,312.1c1.1-0.3,1.7-1,1.5-2.2C119.8,310.5,119.2,311.2,118.9,312.1z"/>
	<path fill="#073B3A" d="M118.9,312.2C118.9,312.1,118.9,312.1,118.9,312.2C118.9,312.1,118.8,312.1,118.9,312.2
		C118.8,312.1,118.9,312.2,118.9,312.2z"/>
	<path fill="#073B3A" d="M120.4,309.9C120.5,309.9,120.5,309.9,120.4,309.9L120.4,309.9c0.1-0.1,0.1-0.2,0.2-0.2
		c-0.1,0-0.1,0.1-0.2,0.1C120.4,309.8,120.4,309.9,120.4,309.9z"/>
	<path fill="#073B3A" d="M169.3,342c0.1-0.3,0-0.6-0.4-0.4c-0.4,0.2-0.7,0.6-0.8,1c0.1,0.1,0.2,0.3,0.3,0.3
		C168.9,342.7,169.2,342.4,169.3,342z"/>
	<path fill="none" d="M110.2,259.4c0.8,1.4,0.3,2,1,3.5c0.2-0.4,0.3-0.8,0.5-1.3c-0.6-0.3-0.9-0.8-1-1.5c-0.1-0.5-0.2-1.1-0.5-1.4
		C110.1,259,110.2,259.3,110.2,259.4z"/>
	<path fill="none" d="M106,78.9c-0.1,0.4-0.9,0.3-1,0.8c0.2,0.7,0.9,0.7,1.3,0.9c0.4,0.2,0.8,0.4,1,0.9c-0.1,0.5-0.5,0.5-0.8,0.6
		c-1.3,0.1-1.6,0.6-0.6,1.5c0.3,0.3,0.6,0.5,0.6,0.9c0,0.2-0.2,0.5-0.3,0.7c-0.2,0.2-0.5,0-0.7-0.2c-0.6-0.7-0.3-2.2-2-2
		c-0.8,0.6,0.9,1.4,0.1,2.1c-0.2,0.2-0.5,0.1-0.6-0.1c-1.1-2.1-2.7-3.8-4-5.7c-0.8-1.1-1.7-1.4-2.8-1.5c-0.7,0-1.9-0.1-1,1.4
		c0.3,0.5-0.3,1.4-0.5,2.2c-0.9-0.6-1.2-1.8-2.7-2.1c1.2,3.3,4.2,7,5.8,10.1c0.8,0.2,1.4,1,2.1,0.8c0.8-0.3,1.3-1.3,2.4-1.2
		c0.5,0.7,0,1.1-0.5,1.3c-0.6,0.3-1.3,0.7-1.8,0.6c-4.1-0.8-5.5,2.3-7.2,4.9c-2,3.2-2.3,7.1-3.4,10.6c1.3,1.9-0.3,3.4-0.8,4.9
		c-2,5.7-2.7,11.6-2.8,17.6c0,3.4-0.8,6.6-1.7,9.9c-0.7,2.5-1.1,5.1-1.6,7.6c-0.1,0.4-0.2,0.9,0,1.1c1.5,1.2,0.4,2.4,0.1,3.6
		c-1.3,5.9-2.8,11.8-3.9,17.7c-0.8,4.7-0.4,9.5,0.3,14.2c1.1,7.1,4.6,13.1,8.7,18.9c1.9,2.7,4.2,5.3,5.4,8.9
		c1.2-1.6,0.1-3.5,1.4-4.8c0.9,1.1,1.4,2.2,1.2,3.5c-0.5,3.3,0.8,6,2.6,8.6c1.4,2,2.8,4,2.8,6.6c1.9-1.2,2.1-1.5,1.4-3.2
		c-0.5-1.3-1.1-2.6-1.7-3.8c-0.2-0.5-0.2-1,0.3-1.2c0.6-0.3,0.8,0.3,1,0.6c1,1.8,1.6,3.7,2,5.8c0.1,0.6-0.1,1.1-0.5,1.5
		c-0.6,0.6-1.1,1.2-1.7,1.8c-2.6,2.5-2.8,4.3-1.4,7.7c0.7,1.7,1.1,3.5,1.5,5.3c0.6,2.6,1.2,5.1,2,7.6c0.8,2.4-0.2,4.7-1.4,6.6
		c-1.7,2.6-2.8,5.7-5.7,7.4c0.1,0.2,0.2,0.4,0.3,0.5c3.8-0.2,7.7-0.4,11.5-0.6c0.1-0.2,0.2-0.3,0.3-0.5c0.1-0.7-0.7-1.7,0.3-2
		c0.4-0.1,0.7,0,0.9,0.2c0-1.4,0.5-4,0.9-3.9c1.5,0.3,1.2-0.6,1.1-1.4c-0.1-1.1-0.9-1.8-1.3-2.8c-1-2.5-2.1-5-1.5-7.8
		c0.2-1.1-0.2-1.7-1.5-1.6c2.2-3.5,2.2-3.5,1.9-6.9c-2.2,0.5-3,2.7-5.1,3.7c1.2-1.5,2.1-3,3.3-4.1c1.5-1.4,2-2.9,1.2-4.9
		c-2,1-3,3.2-5.2,4.1c1.3-2.1,2.9-3.8,4.4-5.5c0.5-0.6,1-1,0.9-1.9c-0.5-4.4-0.7-8.9-2.5-13.1c-0.2-0.3-0.2-0.8,0.2-1
		c0.6-0.3,0.9,0.2,1.1,0.6c1,2.2,1.9,4.5,2.2,7c1.1-1.9,0.2-4.8,1.6-6.1c1.8-1.6,0.3-4.3,2.6-5.4c0.6,0.2,0.4,0.7,0.3,1.1
		c-0.3,1.7,0.1,3.1,1,4.5c1.9,2.8,4.2,5.4,5.9,8.4c1.1-0.3-1-2.7,1.4-2c0,0,0-0.1,0-0.1l0,0.1c0,0,0-0.1,0-0.1c0,0,0,0,0,0.1
		c0,0,0,0,0,0c0,0,0,0,0,0c0.8,3.6,0.7,7.4,1.2,11c0.2,1.5,0.5,2.9,1.1,4.3c0.8,2,1.4,4,1.4,6.2c0.1,4.3,0.3,8.6,0.5,12.9
		c0.1,2.4-0.5,4.6-1.9,6.6c-0.8,1.2-1.5,2.5-2.5,4.2c4.2,0.7,8.2,0.2,12.6,1.4c-1.4-2.5,0.3-4.1,0.4-6.1c0-0.5,0.4-0.8,0.9-1
		c1.1-0.5,0.2-1.1-0.1-1.5c-0.5-0.7-0.9-0.2-1.3,0.3c-0.4,0.5-0.8,1-1.2,1.5c-0.5-0.6,0-1.1,0.2-1.6c0.3-0.7,0.7-1.3,1-2
		c0.3-0.7,0.1-1.3-0.6-1.7c-1.1,0.5-1,2-2.3,2.6c-0.3-2.5,2.9-4.3,1.3-6.9c-1.2,0.3-1.3,1.7-2.3,2.2c0-2.6,2.8-4.2,2.3-6.9
		c-1.3,0.4-1.2,1.8-2.2,2.2c0-1.3,0.7-2.3,1.2-3.3c1.5-2.8,2.1-5.6,1.6-8.9c-0.6-3.8-1.2-7.8-0.3-11.7c1.2-5.4,3.2-10.4,7.2-14.5
		c0.7-0.8,0.9-0.7,2.8,0.2c-1.3,2.3-4.5,3.3-5,6.5c1.7-0.4,2.6-1.8,4.2-1.7c-1.2,1-2.4,1.9-3.6,2.9c-0.7,0.5-1.4,1-1.9,1.6
		c-0.4,0.4-0.4,1.1,0,1.5c0.4,0.5,0.9,0.2,1.3-0.1c1.4-0.9,2.7-1.8,4.4-2.9c-0.6,2-2.6,2.3-3.3,3.8c1.8,1,3.4,0.7,5-0.3
		c1.4-0.9,2.8-1.9,4.3-2.7c-1.1,1.6-2.9,2.5-4.2,3.8c2.4,1.4,2.9,1.4,6.7-0.8c0.2,1-1.3,1-1,2.1c3,1.5,4.9-0.8,7.2-2.2
		c-0.1,1.2-1.4,1.5-1.7,2.4c1.7,1.1,1.7,1.1,7.3-1.6c-0.3,1.1-1.5,1-2,2.1c1.6,0.7,3.1,0.5,4.3-0.4c2.9-2.2,5.6-4.6,7.4-7.9
		c0.1-0.2,0.1-0.4,0.3-0.5c4-4.4,3.7-9.7,3.5-15c-0.1-1.6-0.4-3.1-0.9-4.6c1.1-0.1,1.3,0.6,1.5,1.2c0.5,1.4,0.9,2.9,0.9,4.4
		c0,2.4,0.1,4.8,0,7.3c0,0.9-0.1,1.9-0.7,2.7c-1.9,2.7-2.9,5.9-5.1,8.3c-0.1,0.1,0,0.3-0.1,0.7c1.3-0.3,1.8-1.7,3.3-2.1
		c-0.8,1-1.3,1.8-1.9,2.5c-0.5,0.6-0.8,1.2-0.2,2c0.7,0.8,1.1,0,1.6-0.3c0.4-0.2,0.8-0.5,1.4-0.9c-0.1,1.1-0.8,1.4-1.2,1.9
		c-0.7,0.8-0.4,1.5,0.1,2.3c0.6,1,1.2,0.3,1.9-0.1c0.4,1.1-0.8,1.8-0.1,2.8c0.5,0.7,0.8,1.7,2,1.7c0.1,0,0.4,0.2,0.4,0.3
		c0.4,3.6,2.8,6.6,3.4,10.2c0.5,2.9,0.8,5.8,0.6,8.6c-0.3,4.9,0.6,9.4,2,14c0.6,1.9,1,3.8,1.6,5.7c0.9,2.8,1.2,5.7,0.7,8.6
		c-0.3,1.5,0.3,2.1,1.6,2.3c1.1,0.2,2.2,0.4,3.4,0.6c0.4-1.8-0.3-3.4-0.3-5.1c-1.1-0.2-1.2,0.8-1.9,0.9c-0.3-0.2-0.2-0.4-0.1-0.7
		c0.5-1.2,1.1-2.4,1.5-3.6c0.3-1-0.2-1.3-1.7-0.9c0.3-1.6,1.6-3,1-4.7c-1.1-0.2-0.9,1.2-1.8,1.2c0-0.1-0.2-0.3-0.1-0.4
		c0.7-2.3,2-4.4,2.7-6.8c0.7-2.6,0.4-5-0.5-7.4c-0.4-1.2-0.5-2.2-0.3-3.5c0.7-4,1.3-8,0.6-12.2c-0.9-5.4-0.8-11-0.4-16.5
		c0.3-4.5,1.6-8.8,3.5-12.9c1.7-3.7,1.6-7.3,0.7-11.1c-0.4-1.6-1.3-2.9-1.9-4.4c-0.3-0.8-0.6-1.7,0.9-1.5c1,0.1,0.7-0.6,0.6-1.1
		c-0.4-1.6-1-3-2.1-4.2c-1.1-1.2-2.1-2.4-3.2-3.5c-1.9-2-4.1-3.8-4.3-6.9c0-0.5-0.6-0.9-0.9-1.4c-1.3-1.8-2.4-3.7-3.5-5.7
		c-2-3.7-4.8-6.7-9.2-7.4c-1.3-0.2-2.6-0.7-3.9-0.6c-2.5,0.2-4.5-0.7-6.2-2.6c-0.5,0.1-1,0.1-1.5,0c-2.5-0.3-7.8-1.5-9.8-3.8
		c-1.2-1.3-3.4-1.7-5.2-2.5c-0.4-0.2-0.7,0.1-0.9,0.5c-0.2,0.5-0.3,1.1-0.4,1.6c-1.5,7-2.9,14-4.4,21c-0.6,2.9-0.2,5.8-0.2,8.7
		c0,0.7,0.1,1.3,0.1,2c0,0.7-0.1,0.9-0.9,0.7c-0.9-0.3-0.9,0.8-1,1.3c-0.8,6.7-3.4,13-5.5,19.3c-0.4,1.1-0.3,2.5-2,3
		c-0.6,0.2-0.7,1.6-0.7,2.6c-0.1,1.8-0.3,3.6-0.7,5.4c-0.6-1.2-0.9-2.4-0.8-3.7c0.1-2.3,0.5-4.6,1.1-6.9c0.2-0.7,0.3-1.5,1.4-1.2
		c0.7,0.2,0.7-0.5,0.8-0.9c1.3-4.8,2.6-9.6,3.9-14.3c1.2-4.4,1.4-8.8,1.8-13.2c0.2-3,1.1-6,2.1-8.9c1.4-4.1,1.6-8.2,0.8-12.4
		c-0.2-1-1.3-2.7,0.3-3.1c1.3-0.3,1,1.7,1.4,2.6c0.2,0.5,0.2,1.1,0.4,1.7c1.9-5.5,0.2-10.7-4-14.1c-2.6-2-4.9-4.4-5.1-7.9
		c-1.1-0.3-0.7,2.3-2.3,0.9c-0.4-0.4-0.5,0.2-0.6,0.6c-1.9,5.7-3.8,11.5-6,17.1c-1.5,3.9-1.9,7.9-1.7,12.1
		c0.2,5.1,0.4,10.3,0.6,15.4c0,0.7,0.2,1.5-0.3,2.5c-1.1-2-1.2-4.1-1.4-6.1c-0.4-3.6-1.1-7.2-2.2-10.7c-1.5-4.9-2.2-10-1.3-15.1
		c0.2-0.9,0.1-1.8,1.4-2.3c0.5,0.9,0.3,1.8,0.3,2.7c-0.1,0.9-0.2,1.9-0.3,2.8c-0.4,2.8-0.4,2.8,1.1,7.7c0.4,0.1,0.4-0.3,0.4-0.5
		c0.1-5.2,1.8-10.1,3.8-14.8c0.6-1.5,1.1-3,1.5-4.5c0.4-1.5,0.6-3,2.1-4.1c0.9-0.7,0.7-2.1,0.9-3.2c0.3-1.6,0-3.4,1.8-4.5
		c0.5-0.3,0.6-1.2,0.5-1.8c-0.2-3,0.4-6,1-8.9c0.1-0.3,0.2-0.7-0.3-1.2c-3.2,0.7-6.5,0.6-9.3-1.7c2.9-0.8,6,1.8,9.1-0.8
		c-1.3-1.2-2.7-0.9-3.9-0.9c-2.1,0-3.2-1.4-4.6-2.4c-0.5-0.4-0.6-1.2-0.1-1.8c0.6-0.6,1.4-0.4,1.7,0.2c1.8,3,4.7,2.2,7.3,2.3
		c2.1,0.1,3.2-1.9,2-3.6c-0.6-0.8-0.9-1.2-0.1-2.1c0.6-0.7,0.5-1.5,0.2-2.4c-1.8-4.4-1.9-9.1-1.9-13.8c0-1.2,0.3-2.5,1.5-3.1
		c1.4-0.7,1.3-1.6,0.7-2.8c-0.1-0.2-0.1-0.3-0.2-0.5c-0.4-0.9-0.5-1.6-0.6-2.3c-2.4-0.9-5.4-1.9-6.2-4c-0.1-0.4-0.4-0.8-0.8-0.7
		c-1.7,0.4-2.7-1.5-4.4-1.4c-0.8,0.1-1.2-0.7-1.6-1.4c-0.5-1-1.2-1.9-1.8-2.8c-0.2-0.3-0.5-0.2-0.7-0.1c-0.4,0.2-0.2,0.5-0.1,0.7
		c0.2,1,1.9,1.4,1.1,3.1c-2.1-2.1-3.6-4.8-7.1-5.8c0.9,1.5,1.5,2.5,2.2,3.4c0.9,1.1,0.6,2.3,0.7,3.5c0,0.4-0.3,0.8-0.6,0.8
		c-0.4,0-0.6-0.4-0.7-0.8c-0.2-0.5,0-0.9,0.2-1.3c0.2-0.3,0.2-0.7,0-1c-1.7-2.4-3.7-4.5-6.5-5.7c1.6,2.2,3.2,4.5,4.8,6.6
		c0.3,0.4,0.8,0.6,0.5,1.1c-0.1,0.2-0.3,0.5-0.5,0.6c-0.3,0.2-0.5-0.1-0.5-0.4c-0.2-1-0.3-1.6-1.5-0.6c-0.8,0.6-1.4-0.6-1-1
		c1.5-1.5,0.2-2.3-0.6-3.2c-0.6-0.7-1.3-1.4-2.2-2.4c0.2,1.7,1.5,2.5,1.5,3.8c0,1.4-0.7,1.2-1.6,0.9c0,0,0,0,0,0
		c0.5,0.8,1.3,1.5,1.4,2.4C108.2,78.5,106.4,77.9,106,78.9z M175.7,189.9c0.7,0,1.1,0.4,1.2,1.2c0.1,0.5-0.1,1-0.7,1
		c-0.8,0-0.9-0.8-1.1-1.4C175,190.3,175.3,189.9,175.7,189.9z M173.8,183.2c0.4-0.1,0.6,0.2,0.7,0.6c0.1,0.3,0,0.5-0.3,0.6
		c-0.4,0-0.7-0.1-0.7-0.6C173.4,183.5,173.5,183.3,173.8,183.2z M126.7,226.2c-0.9,0-0.9-0.8-1.2-1.3c-0.9-1.6-1.2-3.5-2.2-5
		c0.5-0.9,0-1.8,0.4-2.7C124.8,218,126.1,221.7,126.7,226.2z M123,189.7c1.1,0.9,1.1,1.6,0.6,2.5C122.9,191.5,122.9,190.9,123,189.7
		z M123,197.3c1.1,0.8,0.9,1.7,0.6,2.9C122.6,199.2,122.9,198.3,123,197.3z M130,107c1.2-0.1,2.9,2,2.5,3.1
		c-0.1,0.3-0.3,0.4-0.6,0.4c-0.6-0.1-2.5-2.1-2.5-2.7C129.3,107.4,129.5,107.1,130,107z M110.8,209.3c-1.1-0.7-0.7-1.8-0.9-2.7
		C111,207.2,111,208.1,110.8,209.3z M115,130.9c0-2.3-0.8-4.4-1.9-6.5c-0.1-0.2-0.2-0.3-0.2-0.5c-0.1-0.8-0.6-2,0.2-2.3
		c1.1-0.4,1,1,1.4,1.6c1.3,2.1,1.4,4.5,1.9,6.8c0,0,0,0,0.1,0l-0.1,0c0,0,0.1,0,0.1,0c0,0,0,0,0,0.1c1,0.5,1.1,1.5,1.1,2.3
		c0,1.6-0.2,3.1-1.1,4.6c-0.5-1.3-0.4-5.2,0-6.9c0,0,0,0,0,0c0,0,0,0,0,0C115.8,130.2,115.8,131.1,115,130.9z M119.5,114.3
		c0-0.2,0.2-0.5,0.6-0.5c0.5,0.1,0.9,0.5,0.9,1.1c0,0.3-0.3,0.4-0.6,0.4C119.8,115.3,119.4,114.9,119.5,114.3z M116.4,153.3
		c-0.5-1.3-0.4-2.6-0.1-3.7c0.9-3.8,0.9-7.7,1.3-11.6c0-0.2,0.3-0.4,0.7-1C120.1,143,118.4,148.1,116.4,153.3z M117.7,111.8
		c-0.8-0.1-1.4-0.6-1.3-1.4c0-0.4,0.4-0.6,0.8-0.5c0.7,0.2,1,0.7,1.1,1.4C118.2,111.5,118,111.8,117.7,111.8z M116.9,75.1
		c0.8,0.1,1.6,1.7,1.2,2.4c-0.1,0.3-0.4,0.4-0.7,0.2c-0.7-0.5-0.9-1.3-1-2.1C116.4,75.5,116.7,75.3,116.9,75.1z M117,90.2
		c0.3,0.4,0.7,0.9,0.3,1.5c-0.4,0.6-1,0.8-1.7,0.6c-1.8-0.5-3.5-1.3-5.2-2.2C113.1,87.9,115.6,88,117,90.2z M109.7,118.3
		c0.1-0.2,0.4-0.3,0.6-0.4c0.9,0.2,0.9,0.9,1.2,1.5c0.3,0.5,0.4,1.1-0.1,1.5c-0.3,0.3-0.8,0.5-1,0.2
		C109.8,120.3,109.4,119.3,109.7,118.3z M100.8,193.3c-0.7-1.7-0.9-3.3-1.9-4.6c-0.8-1,0.1-2.1,2.8-3.4
		C100,188.1,102.2,190.6,100.8,193.3z M101.6,193.7c2.5,1.1,2.5,1.2,2.6,4.1C103.3,196.5,102.6,195.4,101.6,193.7z M106.8,224.4
		c-0.6,1.9-2,3.1-3.7,3.9C103.7,226.4,105.1,225.2,106.8,224.4z M105,197.1c2,1.3,2,2.7,2.2,4.6C105.7,200.3,105.6,198.9,105,197.1z
		 M108.8,115.3c0.1,0.4,0.2,0.9-0.1,1.4c-0.7,0-1.1-0.3-1.4-0.6c-0.3-0.3-0.6-0.7-0.3-1.2c0.2-0.3,0.5-0.6,0.9-0.5
		C108.4,114.5,108.7,114.8,108.8,115.3z"/>
	<path fill="#073B3A" d="M123.2,219.8C123.2,219.8,123.2,219.9,123.2,219.8C123.2,219.9,123.2,219.9,123.2,219.8
		C123.2,219.8,123.2,219.8,123.2,219.8z"/>
	<path fill="#073B3A" d="M123.6,217.1c-0.4,0.9,0.2,1.9-0.4,2.7c1.1,1.5,1.4,3.4,2.2,5c0.3,0.5,0.3,1.2,1.2,1.3
		C126.1,221.7,124.8,218,123.6,217.1z"/>
	<path fill="#073B3A" d="M103.1,228.3c1.7-0.8,3.1-2,3.7-3.9C105.1,225.2,103.7,226.4,103.1,228.3z"/>
	<path fill="#073B3A" d="M109.9,206.5c0.1,0.9-0.2,2,0.9,2.7C111,208.1,111,207.2,109.9,206.5z"/>
	<path fill="#073B3A" d="M116.4,130.1C116.4,130.1,116.4,130.1,116.4,130.1C116.4,130.2,116.4,130.2,116.4,130.1L116.4,130.1z"/>
	<path fill="#073B3A" d="M116.4,130.1C116.4,130.1,116.4,130.2,116.4,130.1C116.4,130.2,116.4,130.2,116.4,130.1
		C116.4,130.2,116.4,130.2,116.4,130.1z"/>
	<path fill="#073B3A" d="M116.3,149.6c-0.3,1.1-0.4,2.4,0.1,3.7c2-5.2,3.7-10.3,1.9-16.3c-0.4,0.6-0.7,0.8-0.7,1
		C117.2,141.9,117.2,145.8,116.3,149.6z"/>
	<path fill="#073B3A" d="M98.9,188.7c1,1.3,1.2,2.9,1.9,4.6c1.4-2.7-0.8-5.3,1-8C99,186.6,98.1,187.7,98.9,188.7z"/>
	<path fill="#073B3A" d="M105,197.1c0.6,1.9,0.8,3.2,2.2,4.6C106.9,199.8,106.9,198.3,105,197.1z"/>
	<path fill="#073B3A" d="M101.6,193.7c1.1,1.7,1.7,2.7,2.6,4.1C104.1,194.9,104,194.8,101.6,193.7z"/>
	<path fill="#073B3A" d="M176.3,192c0.6,0,0.7-0.5,0.7-1c-0.1-0.7-0.4-1.2-1.2-1.2c-0.5,0.1-0.7,0.4-0.6,0.8
		C175.4,191.2,175.5,191.9,176.3,192z"/>
	<path fill="#073B3A" d="M123,197.3c-0.1,1-0.4,1.9,0.6,2.9C124,199,124.1,198.1,123,197.3z"/>
	<path fill="#073B3A" d="M123,189.7c0,1.2-0.1,1.8,0.6,2.5C124.1,191.3,124,190.6,123,189.7z"/>
	<path fill="#073B3A" d="M174.2,184.3c0.3,0,0.4-0.3,0.3-0.6c-0.1-0.4-0.3-0.6-0.7-0.6c-0.3,0.1-0.4,0.3-0.3,0.6
		C173.5,184.2,173.8,184.4,174.2,184.3z"/>
	<path fill="#073B3A" d="M116.4,137.1c0.9-1.5,1.2-3,1.1-4.6c0-0.9-0.2-1.8-1.1-2.3C116,131.9,116,135.8,116.4,137.1z"/>
	<path fill="none" d="M135.8,92.6c-0.1-0.4-0.2-0.7-0.7-0.7c-0.5,0.1-0.8,0.3-0.8,0.9c0.1,1.3,0.3,2.5,0.4,3.9
		C135.9,95.5,136.3,94.2,135.8,92.6z"/>
	<path fill="none" d="M110.2,259.4c0.8,1.4,0.3,2,1,3.5c0.2-0.4,0.3-0.8,0.5-1.3c-0.6-0.3-0.9-0.8-1-1.5c-0.1-0.5-0.2-1.1-0.5-1.4
		C110.1,259,110.2,259.3,110.2,259.4z"/>
	<path fill="none" d="M137.6,84.4c0.3-1,1.6-2.1,0.6-3c-1-0.9-1.9,0.5-2.8,0.9c0.2,1.1,0.6,2,1.2,2.9
		C137.3,85.1,137.5,84.8,137.6,84.4z"/>
	<path fill="none" d="M120.1,264.7c1.2,0.5,1.9,0.2,2.4-1c1.4-3.5,2.8-6.9,2.7-10.8c-0.2-3.9-0.3-7.8,0-11.8
		c0.1-1.3-0.5-2.4-0.9-3.5c-0.7-1.9-1.6-3.8-1.6-5.9c0-0.2-0.1-0.7-0.2-0.7c-1.4,0-1.1-1-1.1-1.8c0.2-3.9-1-7.3-3.4-10.4
		c-1.5-1.9-2.8-3.9-4.3-5.9c-2.3,6.7-2.6,13.3-1.6,20.1c0.2,1.2,0.3,2.5-0.1,3.6c-1.2,2.9-0.7,5.9-0.7,8.8c0,1.7,1,3.3,1.9,4.9
		c1.5,2.9-0.1,7.8-1.3,11.2c0.2,0.1,0.3,0.2,0.5,0.2C114.9,262.7,117.5,263.7,120.1,264.7z"/>
	<path fill="none" d="M184,262.9c-0.2-1.3-0.4-2.6-0.9-3.8c-1.2-2.4-1.3-5-1-7.6c0.4-4.1,0.4-8.1-0.9-12.1
		c-1.5-4.5-4.1-8.3-6.8-12.1c-0.9-1.3-1.4-3-3-3.9c-1,1.3-2.1,2.3-2.8,3.6c-2.3,4.4-3.9,9.1-4.2,14.1c-0.3,3.7-0.2,7.6,1.2,11
		c1,2.4,2.1,4.8,3.2,7.1c1.2,2.4,1.2,4.4-0.3,6.5c-0.6,0.9-1.6,1.8-1.4,3c0.2,1.5-0.2,3-0.6,4.4c-0.4,1.5,0.1,2.1,1.4,2.7
		c5.9,2.8,12.2,3.2,18.8,3c0-3.5-0.1-6.6-1.2-9.7C184.8,267.1,184.3,265,184,262.9z"/>
	<path fill="none" d="M167.7,261.3c-0.5-1.7-1.3-3.2-2.4-4.7c-2-2.7-2.6-5.9-3.2-9c-0.7-0.2-1,0.8-1.7,0.1c2-2.8,1.7-5.8,1.6-9.2
		c-1.6,0.9-2.2,2.1-3,3.1c0,0,0,0,0,0.1l0,0c0,0,0,0,0,0c0,0,0,0-0.1,0c-0.4,0.3-0.7,0.7-1.2,1.1c0.2-0.8,0.4-1.3,1.2-1.1
		c0,0,0,0,0,0c0,0,0,0,0,0c-0.5-1.2,0.4-1.9,1-2.6c2.5-3,4.1-6.4,4.9-10.7c-2.1,2.1-3.9,3.8-5.7,5.6c1.3-2.9,3.8-4.7,5.3-7.4
		c-1.6-0.5-2.7,0-3.6,1.1c-1.1,1.2-2.2,2.3-3.4,3.4c-0.3,0.3-0.6,0.9-1.3,0.4c0.9-1.7,2.9-2.7,3.4-4.7c-1.4-0.5-2.4-0.3-3.4,0.8
		c-1,1.1-2.1,2.1-3.2,3.1c-0.7,0.7-1.3,1.4-2.8,1.7c1.9-2.1,3.4-3.8,5-5.6c-0.6-0.8-1.4-1-2.1-0.7c-1.9,0.7-3,2.4-4.4,3.8
		c-0.9,0.9-0.1,2,0.1,2.9c0.2,0.8,0.4,1.6,0.4,2.5c0,1,0.3,2,0.9,2.7c1.3-0.2,1.5-1.9,2.9-1.5c-0.2,1-1.1,1.3-1.7,1.9
		c-1,1-0.9,2.2,0,4.2c0.7,1.6,1.6-0.4,2.4,0.4c-1.9,1.8-0.9,3.5,0.1,5.3c1.3,2.5,2.7,4.9,4,7.3c0.3,0.6,0.7,1.2,0.8,1.8
		c0.2,3.3,1.1,6.7,0.2,10c-0.3,1.2-0.7,2.3-1,3.5c-0.3,0.9-0.1,1.5,0.8,1.7c2,0.6,4,1.6,6.1,1.8c0.1-0.3,0.3-0.6,0.3-0.9
		c0.2-3.5,0.7-6.9,2.5-9.9C167.9,262.8,167.9,262.1,167.7,261.3z"/>
	<path fill="none" d="M155.2,254.9c-3.9-5.4-5.7-11.6-7.5-17.9c-0.9-3.4-0.8-6.8-0.7-10.3c0-1.3-0.4-1.8-1.6-2.1
		c-2.9-0.7-5.8-1.5-8.9-2.4c-0.4,1.5-0.7,2.9-0.6,4.3c0.2,2.9,0.5,5.8,0.8,8.6c0.2,1.7,0.2,3.3-0.1,5c-1.1,5.7-0.8,11.3,2,16.6
		c1.3,2.4,0.7,5.5-1.3,7.9c-0.4,0.5-0.4,1-0.3,1.6c0.1,0.8,0.7,0.7,1.3,0.8c1.4,0.2,2.8,0.3,4.1,0.6c4,1.1,8.2,1.9,12.1,3.4
		c1.1,0.4,1.8,0.3,2-1c0.4-2.4,1-4.8,0.7-7.2C156.8,260,156.9,257.3,155.2,254.9z"/>
	<path fill="none" d="M100,226.9c0.4-0.1,0.7-0.5,0.6-0.8c-0.2-1.2-0.7-2.2-1.6-3.6c-0.7,1.6,0.2,2.7,0.3,3.8
		C99.3,226.7,99.5,227.1,100,226.9z"/>
	<path fill="none" d="M150.2,226.3c0.2-0.5,0-0.9-0.6-1c-0.5-0.1-0.9,0-1,0.6c-0.1,0.5,0,1.1,0,1.8
		C149.7,227.6,149.9,226.9,150.2,226.3z"/>
	<path fill="#073B3A" d="M117.4,91.7c0.4-0.6,0-1.1-0.3-1.5c-1.4-2.3-3.9-2.3-6.6-0.1c1.7,0.9,3.4,1.7,5.2,2.2
		C116.4,92.5,116.9,92.3,117.4,91.7z"/>
	<path fill="#073B3A" d="M131.8,110.5c0.3,0,0.5-0.1,0.6-0.4c0.4-1.1-1.3-3.1-2.5-3.1c-0.4,0.1-0.7,0.4-0.6,0.7
		C129.3,108.4,131.2,110.4,131.8,110.5z"/>
	<path fill="#073B3A" d="M107,114.9c-0.3,0.5,0,0.9,0.3,1.2c0.3,0.3,0.7,0.6,1.4,0.6c0.3-0.5,0.2-1,0.1-1.4
		c-0.1-0.5-0.4-0.8-0.9-0.9C107.5,114.3,107.2,114.5,107,114.9z"/>
	<path fill="#073B3A" d="M118.1,77.5c0.4-0.7-0.4-2.3-1.2-2.4c-0.1,0.1-0.5,0.3-0.5,0.5c0.1,0.8,0.3,1.6,1,2.1
		C117.7,77.9,117.9,77.8,118.1,77.5z"/>
	<path fill="#073B3A" d="M117.2,109.8c-0.4-0.1-0.8,0.1-0.8,0.5c0,0.9,0.5,1.3,1.3,1.4c0.3,0,0.5-0.2,0.5-0.6
		C118.2,110.5,117.9,110,117.2,109.8z"/>
	<path fill="#073B3A" d="M120.4,115.3c0.3,0,0.6-0.1,0.6-0.4c0-0.6-0.4-1-0.9-1.1c-0.5-0.1-0.6,0.2-0.6,0.5
		C119.4,114.9,119.8,115.3,120.4,115.3z"/>
	<path fill="#073B3A" d="M116.4,130.1c-0.5-2.3-0.7-4.7-1.9-6.8c-0.4-0.6-0.3-2-1.4-1.6c-0.8,0.3-0.3,1.5-0.2,2.3
		c0,0.2,0.1,0.3,0.2,0.5c1.1,2,1.9,4.2,1.9,6.5C115.8,131.1,115.8,130.2,116.4,130.1z"/>
	<path fill="#073B3A" d="M254.1,305.1c-3.7-2.6-7.8-4.7-11.2-7.8c-4.5-4.2-10.1-6.6-15.4-9.7c-3.7-2.2-7.6-3-11.8-2.6
		c-3.1,0.3-6.2,0.1-9.2,0.6c-1.5,0.2-3.3,0.4-4-1.7c-0.2-0.5-0.7-0.8-1.3-1c-1.2-0.5-2.4-1-3.6-1.4c-3.2-1.1-3.2-1-3.3-4.5
		c-0.1-3.5-0.2-7.1-0.3-10.6c0-1.4-0.1-2.8,0.2-4.2c0.7-3.7,0.7-7.4-0.4-11.1c-0.2-0.7,0-1.3,0.1-1.9c0.9-4.9,0.7-9.8,0.4-14.8
		c-0.3-5.9-1.2-11.9,0.2-17.8c0.4-1.6,0.6-3.4,1.2-4.9c2.5-5.7,3-11.6,2.5-17.8c-0.4-5.5-2.2-10.1-6.5-13.7c-0.4-0.4-0.9-0.8-1-1.5
		c1.3-0.2,1.8,1.2,3.3,0.8c-0.9-1.2-1.7-2.1-2.8-3c-3.2-2.5-5.6-5.6-7.4-9.3c-2.3-4.6-5.6-8.2-11.1-8.9c-1.5-0.2-2.8-0.8-4.1-1.5
		c-1.2-0.6-2.5-1-3.9-0.9c0.3-0.3,0.6-0.5,0.9-0.9c-2.1,0-3.7,0-5.4,0c-0.6,0-3.8-1.5-3.1-2.2c0.9-0.9,0.3-1.3-0.5-1.4
		c-1.2-0.2-2.4-0.1-3.6-0.2c-2.3-0.2-4.3-1.1-6.1-2.6c-0.6-0.5-1.1-1-0.9-1.9c0.7-2.3-1-3.4-2.6-4.4c-1.3-0.8-2.7-1.3-4.1-1.7
		c-2.6-0.8-3.9-2.7-4.4-5.2c-0.4-1.9-0.6-3.9-1.1-5.8c-0.5-2-0.3-4,0.1-6.1c0.5-2.4,1-4.8,0.4-7.2c-0.2-0.9,0.1-1.4,0.8-1.9
		c1.7-1.1,2.2-2.4,1.2-4.3c-0.2-0.4-0.6-0.8-0.2-1.3c1.5-1.7,0.6-3.2,0-4.9c-0.8-2.5-1.5-5,0.5-7.4c1.2-1.5,1.1-3.3,0.4-5.1
		c-0.4-0.9-0.3-1.5,0.3-2.4c0.5-0.7-0.7-1.9-0.3-2.9c0.1-0.3,0.6-0.5,0.8-0.7c0.8-1.1,1.6-2.3,1.8-3.7c0.2-1.2-0.3-1.6-1.3-1.6
		c-2.2,0-3.5,0.6-4,1.7c-1-1.1-2.4-2.1-3.1-2.4c-1.4-0.5-1.5-1.3-0.9-2.4c2.6-4.4,5.6-8.2,11.2-8.7c1.1-0.1,2.1-0.6,3.2-1
		c1.1-0.4,1.7-1.1,1.3-2.4c-0.5-1.6,0.3-2.9,1.4-4c0.8-0.8,1.7-1.5,2.7-2c0.8-0.4,1.7-0.8,2.3-1.6c0.7-0.9,0.4-1.9-0.7-2.2
		c-0.5-0.2-1.1-0.1-1.7-0.1c-2.7,0-3.3-0.4-3.5-3.1c-0.1-1.2,0.1-2.3,0.8-3.2c2.3-3.1,4.8-6,8.3-7.8c2.4-1.2,4.8-2.4,7.5-2.8
		c1.2-0.2,2.2-0.7,2.8-1.7c1.4-2.5,3.6-4,5.9-5.5c0.6-0.4,1.2-0.7,1.4-1.6c0.9-3.6,2.3-6.9,4.6-9.8c0.6-0.8,1-1.8,1.4-2.7
		c0.3-0.8,0.8-1.7-0.2-2.2c-1-0.5-2.1-0.9-3.1,0.1c-0.2,0.3-0.5,0.6-0.7,0.9c-2.9,3.9-5.2,8.2-8.6,11.6c-1.2,1.2-2.4,2.1-4,2.2
		c-5,0.5-9.2,3-13.1,5.8c-3.4,2.4-6.4,5.5-8.9,9.1c-2.5,3.7-4.6,7.4-5.8,11.7c-0.2,0.7-0.5,1.2-1.2,1.4c-3.1,1.1-5.1,3.5-6.7,6.1
		c-1.5,2.3-2.9,4.8-4.4,7.1c-0.2,0.3-0.7,1-0.9,1.7c-0.6-1-1.1-2.1-1.9-3c-3.3-4.2-6.7-8.2-10.1-12.4c-2.1-2.7-4.8-4.3-8.1-5.1
		c-3.2-0.7-6.4-1.2-9.7-0.5c-1.5,0.3-3.2,0.3-4.7,0.5c-0.7,0.1-1-0.1-1.3-0.7c-1.3-2.9-4.1-4-6.5-5.5c-0.6-0.4-1.3-0.5-1.7-1.3
		c-1.2-2.2-3.2-3.4-5.3-4.3c-0.7-0.3-1.6-0.3-1.8-1.1c-0.6-2-2-3.6-2.3-5.7c-0.5-3.1-2.7-4.4-5.7-3.6c-5.3,1.4-10.6,2.8-15.5,5.6
		c-1,0.6-2.1,0.8-3.2,1c-0.6-1.7-0.8-3.5-1.9-4.7c-2.8-3.1-6.2-5.6-9.7-8c-1.6-1-3-0.7-4.4,0.4c-1.2,1-1.3,1.9,0,2.6
		c2.3,1.2,4.1,3,6.2,4.4c3.7,2.4,5,5.9,4.1,10.2c-0.3,1.6,0.3,2.5,2,2.5c1.1,0,2.2-0.2,3.3-0.3c0.9,0,1.7,0.1,1.6,1.3
		c0,1.4,0.9,1.7,2.1,1.6c0.5-0.1,0.9-0.2,1.4-0.2c4.6-0.6,9.1-0.3,13.4,1.5c2.2,0.9,3.9,2.5,5.9,3.7c2,1.3,3.4,2.9,3.9,5.2
		c0.5,2.2,0,4.1-1.5,6c-1.3,1.6-0.8,2.9,1.1,3.8c1.4,0.6,2.8,0.9,4.3,1.1c1.7,0.3,3.7,0,5.2,1c2.5,1.7,4.9,1.1,7.5,0.3
		c2.9-1,5.8-1.2,8.8-1.3c3.7-0.1,8.6,3.6,9.8,7.2c0,0-0.1,0.1-0.2,0.2c0,0,0,0,0,0c0,0,0,0,0,0c0,0,0,0,0,0c0.9,0.4,1.6,0.6,1.6-0.9
		c0-1.3-1.3-2.1-1.5-3.8c1,1,1.7,1.7,2.2,2.4c0.7,0.9,2,1.7,0.6,3.2c-0.4,0.4,0.2,1.5,1,1c1.2-0.9,1.3-0.3,1.5,0.6
		c0.1,0.2,0.2,0.6,0.5,0.4c0.2-0.1,0.4-0.4,0.5-0.6c0.2-0.5-0.3-0.8-0.5-1.1c-1.6-2.2-3.2-4.4-4.8-6.6c2.8,1.2,4.8,3.3,6.5,5.7
		c0.2,0.3,0.2,0.7,0,1c-0.3,0.4-0.4,0.8-0.2,1.3c0.1,0.3,0.3,0.8,0.7,0.8c0.4,0,0.7-0.4,0.6-0.8c-0.1-1.2,0.2-2.4-0.7-3.5
		c-0.7-0.9-1.3-2-2.2-3.4c3.5,1,5,3.7,7.1,5.8c0.7-1.6-0.9-2-1.1-3.1c-0.1-0.2-0.2-0.6,0.1-0.7c0.3-0.1,0.6-0.2,0.7,0.1
		c0.6,0.9,1.3,1.8,1.8,2.8c0.4,0.7,0.7,1.5,1.6,1.4c1.7-0.2,2.6,1.8,4.4,1.4c0.4-0.1,0.6,0.4,0.8,0.7c0.8,2.1,3.8,3.1,6.2,4
		c0,0.7,0.2,1.4,0.6,2.3c0.1,0.2,0.1,0.4,0.2,0.5c0.6,1.1,0.8,2-0.7,2.8c-1.2,0.6-1.5,1.9-1.5,3.1c0.1,4.7,0.2,9.3,1.9,13.8
		c0.3,0.9,0.4,1.7-0.2,2.4c-0.8,0.8-0.5,1.3,0.1,2.1c1.2,1.7,0.2,3.7-2,3.6c-2.6-0.1-5.5,0.7-7.3-2.3c-0.3-0.5-1.1-0.8-1.7-0.2
		c-0.5,0.6-0.5,1.3,0.1,1.8c1.4,1,2.5,2.5,4.6,2.4c1.2,0,2.6-0.3,3.9,0.9c-3,2.5-6.1,0-9.1,0.8c2.8,2.3,6.1,2.4,9.3,1.7
		c0.5,0.5,0.4,0.9,0.3,1.2c-0.6,2.9-1.1,5.9-1,8.9c0,0.7,0,1.5-0.5,1.8c-1.7,1.1-1.4,2.9-1.8,4.5c-0.2,1.1,0,2.5-0.9,3.2
		c-1.5,1.1-1.7,2.6-2.1,4.1c-0.4,1.5-0.9,3-1.5,4.5c-2,4.8-3.7,9.6-3.8,14.8c0,0.2,0,0.6-0.4,0.5c-1.5-4.9-1.5-4.9-1.1-7.7
		c0.1-0.9,0.2-1.9,0.3-2.8c0.1-0.9,0.2-1.8-0.3-2.7c-1.2,0.5-1.2,1.4-1.4,2.3c-0.9,5.2-0.2,10.2,1.3,15.1c1.1,3.5,1.8,7,2.2,10.7
		c0.2,2,0.2,4,1.4,6.1c0.5-1,0.3-1.7,0.3-2.5c-0.2-5.1-0.4-10.3-0.6-15.4c-0.2-4.1,0.2-8.2,1.7-12.1c2.2-5.6,4.2-11.3,6-17.1
		c0.1-0.3,0.1-0.9,0.6-0.6c1.5,1.3,1.2-1.3,2.3-0.9c0.2,3.5,2.6,5.9,5.1,7.9c4.3,3.4,5.9,8.6,4,14.1c-0.1-0.7-0.2-1.3-0.4-1.7
		c-0.4-0.9-0.1-2.9-1.4-2.6c-1.6,0.3-0.5,2.1-0.3,3.1c0.8,4.2,0.7,8.3-0.8,12.4c-1,2.9-1.9,5.9-2.1,8.9c-0.4,4.4-0.6,8.8-1.8,13.2
		c-1.4,4.7-2.7,9.5-3.9,14.3c-0.1,0.4-0.1,1.1-0.8,0.9c-1.1-0.3-1.2,0.4-1.4,1.2c-0.6,2.3-1,4.6-1.1,6.9c-0.1,1.3,0.2,2.5,0.8,3.7
		c0.4-1.8,0.6-3.6,0.7-5.4c0.1-0.9,0.2-2.4,0.7-2.6c1.7-0.5,1.6-1.9,2-3c2.1-6.4,4.6-12.6,5.5-19.3c0.1-0.6,0.1-1.6,1-1.3
		c0.9,0.3,1,0,0.9-0.7c0-0.7-0.1-1.3-0.1-2c0-2.9-0.4-5.8,0.2-8.7c1.4-7,2.9-14,4.4-21c0.1-0.5,0.3-1.1,0.4-1.6
		c0.1-0.4,0.5-0.7,0.9-0.5c1.8,0.8,4,1.2,5.2,2.5c2,2.3,7.3,3.5,9.8,3.8c0.5,0.1,1,0.1,1.5,0c1.7,2,3.7,2.8,6.2,2.6
		c1.3-0.1,2.6,0.4,3.9,0.6c4.5,0.8,7.2,3.8,9.2,7.4c1.1,2,2.2,3.9,3.5,5.7c0.3,0.5,0.9,0.9,0.9,1.4c0.2,3.1,2.4,4.9,4.3,6.9
		c1.1,1.2,2.1,2.4,3.2,3.5c1.1,1.2,1.7,2.6,2.1,4.2c0.1,0.5,0.4,1.2-0.6,1.1c-1.5-0.2-1.3,0.7-0.9,1.5c0.6,1.5,1.5,2.8,1.9,4.4
		c0.9,3.8,1,7.4-0.7,11.1c-1.9,4.1-3.2,8.4-3.5,12.9c-0.4,5.5-0.5,11.1,0.4,16.5c0.7,4.2,0.1,8.2-0.6,12.2c-0.2,1.3-0.1,2.3,0.3,3.5
		c0.8,2.4,1.1,4.8,0.5,7.4c-0.6,2.4-2,4.4-2.7,6.8c0,0.1,0.1,0.3,0.1,0.4c0.9,0.1,0.6-1.4,1.8-1.2c0.6,1.7-0.6,3.1-1,4.7
		c1.5-0.4,2-0.1,1.7,0.9c-0.4,1.2-1,2.4-1.5,3.6c-0.1,0.2-0.2,0.5,0.1,0.7c0.7-0.1,0.8-1.1,1.9-0.9c0,1.6,0.7,3.2,0.3,5.1
		c-1.3-0.2-2.4-0.4-3.4-0.6c-1.3-0.3-1.9-0.8-1.6-2.3c0.6-2.9,0.3-5.7-0.7-8.6c-0.6-1.9-1.1-3.8-1.6-5.7c-1.3-4.6-2.3-9.2-2-14
		c0.2-2.9-0.1-5.7-0.6-8.6c-0.6-3.6-3-6.6-3.4-10.2c0-0.1-0.3-0.3-0.4-0.3c-1.2,0-1.4-1-2-1.7c-0.7-1,0.5-1.7,0.1-2.8
		c-0.6,0.4-1.2,1.2-1.9,0.1c-0.5-0.8-0.8-1.4-0.1-2.3c0.4-0.5,1.1-0.8,1.2-1.9c-0.6,0.4-1,0.6-1.4,0.9c-0.5,0.3-0.9,1.1-1.6,0.3
		c-0.6-0.7-0.3-1.3,0.2-2c0.6-0.7,1.2-1.5,1.9-2.5c-1.6,0.4-2,1.8-3.3,2.1c0-0.4,0-0.6,0.1-0.7c2.2-2.5,3.2-5.7,5.1-8.3
		c0.6-0.8,0.7-1.8,0.7-2.7c0-2.4,0-4.8,0-7.3c0-1.5-0.4-3-0.9-4.4c-0.2-0.6-0.4-1.4-1.5-1.2c0.5,1.5,0.9,3,0.9,4.6
		c0.2,5.3,0.5,10.7-3.5,15c-0.1,0.1-0.2,0.3-0.3,0.5c-1.8,3.3-4.5,5.7-7.4,7.9c-1.3,1-2.8,1.1-4.3,0.4c0.4-1.1,1.7-1,2-2.1
		c-5.6,2.7-5.6,2.7-7.3,1.6c0.3-0.9,1.6-1.2,1.7-2.4c-2.3,1.4-4.3,3.6-7.2,2.2c-0.3-1.1,1.3-1.1,1-2.1c-3.9,2.2-4.4,2.3-6.7,0.8
		c1.3-1.4,3.1-2.2,4.2-3.8c-1.5,0.8-2.9,1.7-4.3,2.7c-1.6,1-3.2,1.3-5,0.3c0.7-1.5,2.7-1.7,3.3-3.8c-1.7,1.1-3,2-4.4,2.9
		c-0.4,0.2-0.8,0.5-1.3,0.1c-0.4-0.5-0.4-1.1,0-1.5c0.6-0.6,1.3-1.1,1.9-1.6c1.2-1,2.4-1.9,3.6-2.9c-1.6-0.1-2.4,1.3-4.2,1.7
		c0.6-3.2,3.7-4.2,5-6.5c-1.9-0.9-2-0.9-2.8-0.2c-3.9,4.1-6,9.1-7.2,14.5c-0.9,3.9-0.2,7.8,0.3,11.7c0.5,3.2-0.1,6.1-1.6,8.9
		c-0.6,1.1-1.2,2.1-1.2,3.3c1-0.5,0.9-1.9,2.2-2.2c0.4,2.7-2.4,4.4-2.3,6.9c1.1-0.5,1.1-2,2.3-2.2c1.6,2.6-1.6,4.4-1.3,6.9
		c1.3-0.6,1.2-2,2.3-2.6c0.7,0.4,0.8,1,0.6,1.7c-0.3,0.7-0.6,1.3-1,2c-0.2,0.5-0.6,1-0.2,1.6c0.4-0.5,0.9-1,1.2-1.5
		c0.4-0.5,0.8-1,1.3-0.3c0.3,0.4,1.1,1,0.1,1.5c-0.4,0.2-0.9,0.5-0.9,1c-0.1,1.9-1.8,3.6-0.4,6.1c-4.3-1.2-8.3-0.7-12.6-1.4
		c1-1.7,1.6-3,2.5-4.2c1.4-2,2-4.2,1.9-6.6c-0.2-4.3-0.3-8.6-0.5-12.9c-0.1-2.2-0.6-4.3-1.4-6.2c-0.6-1.4-0.9-2.8-1.1-4.3
		c-0.4-3.7-0.4-7.4-1.2-11c-2.4-0.7-0.3,1.7-1.4,2c-1.7-3-4-5.6-5.9-8.4c-1-1.4-1.4-2.8-1-4.5c0.1-0.4,0.4-0.9-0.3-1.1
		c-2.3,1-0.8,3.8-2.6,5.4c-1.4,1.2-0.5,4.1-1.6,6.1c-0.3-2.5-1.2-4.8-2.2-7c-0.2-0.4-0.5-0.9-1.1-0.6c-0.4,0.2-0.4,0.6-0.2,1
		c1.8,4.2,2,8.6,2.5,13.1c0.1,0.9-0.4,1.4-0.9,1.9c-1.5,1.7-3.1,3.4-4.4,5.5c2.1-0.9,3.2-3.1,5.2-4.1c0.8,2.1,0.2,3.5-1.2,4.9
		c-1.2,1.1-2.1,2.5-3.3,4.1c2.1-1.1,2.9-3.3,5.1-3.7c0.4,3.5,0.4,3.5-1.9,6.9c1.3-0.2,1.7,0.5,1.5,1.6c-0.6,2.8,0.6,5.3,1.5,7.8
		c0.4,1,1.1,1.7,1.3,2.8c0.1,0.8,0.4,1.7-1.1,1.4c-0.4-0.1-0.8,2.5-0.9,3.9c0.3,0.3,0.4,0.9,0.5,1.4c0.1,0.7,0.4,1.2,1,1.5
		c1.2-3.3,2.8-8.2,1.3-11.2c-0.8-1.6-1.8-3.2-1.9-4.9c0-2.9-0.5-6,0.7-8.8c0.5-1.1,0.3-2.4,0.1-3.6c-1.1-6.7-0.7-13.3,1.6-20.1
		c1.5,2.1,2.8,4.1,4.3,5.9c2.5,3.1,3.7,6.5,3.4,10.4c-0.1,0.8-0.3,1.8,1.1,1.8c0.1,0,0.2,0.5,0.2,0.7c0.1,2.1,1,4,1.6,5.9
		c0.4,1.1,1,2.2,0.9,3.5c-0.3,3.9-0.2,7.9,0,11.8c0.2,3.9-1.2,7.3-2.7,10.8c-0.5,1.2-1.1,1.5-2.4,1c-2.6-1-5.2-2-7.9-2.9
		c-0.2-0.1-0.4-0.2-0.5-0.2c-0.2,0.5-0.3,0.9-0.5,1.3c-0.7-1.5-0.2-2.1-1-3.5c-0.1-0.1-0.1-0.4-0.1-0.7c-0.2-0.2-0.5-0.3-0.9-0.2
		c-1,0.3-0.2,1.3-0.3,2c0,0.2-0.2,0.3-0.3,0.5c-3.8,0.2-7.7,0.4-11.5,0.6c-0.1-0.2-0.2-0.4-0.3-0.5c3-1.7,4-4.8,5.7-7.4
		c1.3-2,2.2-4.2,1.4-6.6c-0.8-2.5-1.4-5-2-7.6c-0.4-1.8-0.9-3.6-1.5-5.3c-1.4-3.4-1.1-5.2,1.4-7.7c0.6-0.6,1.2-1.2,1.7-1.8
		c0.4-0.4,0.6-0.9,0.5-1.5c-0.4-2-1-4-2-5.8c-0.2-0.4-0.5-0.9-1-0.6c-0.5,0.3-0.5,0.8-0.3,1.2c0.6,1.3,1.2,2.5,1.7,3.8
		c0.7,1.7,0.5,2.1-1.4,3.2c0-2.6-1.3-4.6-2.8-6.6c-1.8-2.5-3.1-5.3-2.6-8.6c0.2-1.3-0.3-2.4-1.2-3.5c-1.3,1.3-0.2,3.1-1.4,4.8
		c-1.2-3.6-3.4-6.2-5.4-8.9c-4.1-5.7-7.6-11.8-8.7-18.9c-0.8-4.7-1.1-9.5-0.3-14.2c1-6,2.6-11.8,3.9-17.7c0.3-1.2,1.4-2.5-0.1-3.6
		c-0.2-0.1-0.1-0.7,0-1.1c0.5-2.6,0.9-5.1,1.6-7.6c0.9-3.3,1.6-6.5,1.7-9.9c0.1-6,0.8-11.9,2.8-17.6c0.5-1.6,2.1-3,0.8-4.9
		c1.1-3.6,1.3-7.4,3.4-10.6c1.6-2.6,3.1-5.7,7.2-4.9c0.6,0.1,1.3-0.3,1.8-0.6c0.5-0.2,1-0.6,0.5-1.3c-1.1-0.1-1.6,0.9-2.4,1.2
		c-0.7,0.2-1.3-0.5-2.1-0.8c-1.6-3.1-4.5-6.8-5.8-10.1c1.5,0.3,1.7,1.5,2.7,2.1c0.2-0.8,0.8-1.8,0.5-2.2c-0.9-1.5,0.3-1.5,1-1.4
		c1.1,0.1,2,0.3,2.8,1.5c1.3,1.9,2.9,3.6,4,5.7c0.1,0.2,0.4,0.4,0.6,0.1c0.8-0.7-0.9-1.5-0.1-2.1c1.7-0.3,1.4,1.3,2,2
		c0.2,0.2,0.5,0.4,0.7,0.2c0.2-0.2,0.3-0.5,0.3-0.7c0-0.4-0.3-0.6-0.6-0.9c-1-1-0.7-1.4,0.6-1.5c0.4,0,0.7-0.1,0.8-0.6
		c-0.2-0.5-0.6-0.6-1-0.9c-0.5-0.3-1.1-0.3-1.3-0.9c0.2-0.5,0.9-0.4,1-0.8c0.4-1,2.1-0.4,2-1.5c-0.1-0.8-0.9-1.6-1.4-2.4
		c-0.2,1.6-1.6,2.2-2.6,3c-0.8,0.6-2.2,1.3-3.4-0.1c-0.9-1.1-2.4-1.8-3.8-1.3c-2.3,0.8-4.3,0-6.5-0.4c-0.7-0.1-1.3-0.3-1.8,0.2
		c-0.7,0.7,0,1.2,0.3,1.7c2,3,4.1,6,5.4,9.4c0.3,0.8,1.2,1.8,2.2,2.2c-0.2,0.1-0.3,0.2-0.5,0.3c-3.1,2.4-5.6,5.2-6.9,9
		c-2.3,6.9-3,14.2-5.5,21c-0.3,0.9-0.4,2-0.5,3c-0.1,0.4-0.2,1,0.1,1c1.8,0.2,0.9,1.5,0.9,2.3c0.2,4.3-0.7,8.5-1.8,12.7
		c-1.3,4.9-2.3,9.8-2.1,14.9c0,1-0.1,2-0.4,3c-1.1,3.6-2.1,7.2-3.1,10.7c-1,3.6-0.9,7.2-0.2,10.8c0.4,1.7,1.1,3.4,1.2,5.2
		c0.2,3.3,1.5,6.3,2.7,9.4c1.9,4.7,4.9,8.8,7.6,13c2.7,4.1,4.8,8.3,3.3,13.4c-0.1,0.4-0.1,0.9-0.1,1.4c0,0.8,0.2,1.5,1.2,1.8
		c1-1.8,0.7-4.1,1.8-6c1.2,1.7,2,3.2,2,5.1c0,3.5,1.6,6.9,1.2,10.5c-0.1,0.5,0.2,1.1,0.5,1.6c1.5,2.3,1.8,5.1,2.6,7.6
		c1.4,4.4,1.8,9-0.8,13.2c-0.8,1.3-1.5,2.6-2.4,3.8c-2,2.9-2.9,3.5-6.4,3.9c-2.2,0.2-4.3,0.5-6.2,1.6c-3.3,1.9-6.9,3.4-10.3,5.1
		c-0.4,0.2-0.9,0.4-0.6,1c0.2,0.6,0.8,0.5,1.2,0.3c2.8-2.1,6.4-2.4,9.4-4.1c2.2-1.2,4.5-1.7,6.9-2.1c4.4-0.9,8.9-0.3,13.4-0.8
		c1.2-0.1,2.5-0.4,3.6-0.1c3,1,6.1,1.4,8.9,2.9c1.3,0.8,2.9,1.2,4.5,1.3c4.8,0.3,9.5,1,14.2,1.6c4.7,0.5,9.2,1.6,13.7,2.9
		c5.8,1.7,11.5,3.9,17.2,6c3.2,1.2,6.5,2.4,9.9,2.9c2.9,0.4,2.9,0.4,1.2,2.8c-0.1,0.2-0.1,0.3,0.2,0.5c1.8-1,2.9-3.9,5.8-2.7
		c-0.5,1.8-2.4,2.6-2.8,4.3c1.3-1,2.6-2,3.7-3.1c0.9-0.9,1.8-1.1,3-1c3.5,0.5,7,1.3,10.3,2.5c1.7,0.6,2.7,1.5,3.1,3.2
		c0.2,1.2,0.5,2.4,1.6,3.2c2.3,1.5,4.8,2.8,7.9,3.7c-1-1.2-1.5-2-2.7-2.6c-1.6-0.7-3-2-4.2-3.6c1.8-0.7,3.6-0.3,5.1-1
		c1.7-0.8,3,1.1,4.6,0.3c1.5-0.7,3.3-0.4,5-0.4c1.8,0,1.4,1,0.9,2.1c1.8-2,2.2-2.1,4.4-1.1c0.3,0.1,0.5,0.3,0.7,0.4
		c3.4,1.8,6.7,3.6,10.1,5.5c2,1.2,3.9,2.5,5.7,4c2.1,1.8,4.4,3.4,6.7,5c3.3,2.1,6.8,4,9.7,6.6c0.3,0.3,0.8,0.6,1.3,0
		C257.3,307.6,255.7,306.3,254.1,305.1z M138.2,81.5c1,0.9-0.4,2-0.6,3c-0.1,0.3-0.3,0.6-1,0.8c-0.6-0.9-1-1.8-1.2-2.9
		C136.4,82,137.2,80.6,138.2,81.5z M134.7,96.7c-0.1-1.4-0.2-2.6-0.4-3.9c-0.1-0.6,0.3-0.9,0.8-0.9c0.5-0.1,0.6,0.3,0.7,0.7
		C136.3,94.2,135.9,95.5,134.7,96.7z M99.3,226.3c-0.1-1.2-1-2.3-0.3-3.8c0.9,1.3,1.4,2.4,1.6,3.6c0.1,0.4-0.2,0.7-0.6,0.8
		C99.5,227.1,99.3,226.7,99.3,226.3z M148.6,225.9c0.1-0.6,0.5-0.7,1-0.6c0.6,0.1,0.8,0.5,0.6,1c-0.3,0.6-0.5,1.2-1.6,1.4
		C148.6,227,148.6,226.5,148.6,225.9z M156.4,269.9c-0.2,1.3-0.9,1.4-2,1c-3.9-1.5-8.1-2.3-12.1-3.4c-1.3-0.4-2.8-0.4-4.1-0.6
		c-0.5-0.1-1.2,0-1.3-0.8c0-0.5-0.1-1.1,0.3-1.6c2-2.4,2.6-5.5,1.3-7.9c-2.9-5.3-3.1-10.8-2-16.6c0.3-1.7,0.3-3.3,0.1-5
		c-0.3-2.9-0.5-5.8-0.8-8.6c-0.1-1.4,0.2-2.8,0.6-4.3c3.2,0.9,6,1.7,8.9,2.4c1.2,0.3,1.6,0.8,1.6,2.1c0,3.4-0.2,6.9,0.7,10.3
		c1.7,6.3,3.6,12.5,7.5,17.9c1.7,2.3,1.7,5.1,1.9,7.7C157.4,265.1,156.7,267.5,156.4,269.9z M164.7,274.3c-2.2-0.2-4.1-1.2-6.1-1.8
		c-0.9-0.3-1.1-0.9-0.8-1.7c0.4-1.2,0.7-2.3,1-3.5c1-3.4,0-6.7-0.2-10c0-0.6-0.5-1.2-0.8-1.8c-1.3-2.4-2.7-4.9-4-7.3
		c-0.9-1.7-1.9-3.5-0.1-5.3c-0.8-0.8-1.7,1.2-2.4-0.4c-0.9-2-1-3.2,0-4.2c0.6-0.6,1.5-0.8,1.7-1.9c-1.4-0.4-1.7,1.3-2.9,1.5
		c-0.6-0.7-0.8-1.7-0.9-2.7c0-0.8-0.2-1.6-0.4-2.5c-0.2-0.9-1-2-0.1-2.9c1.3-1.4,2.4-3.1,4.4-3.8c0.7-0.3,1.5-0.1,2.1,0.7
		c-1.5,1.7-3.1,3.5-5,5.6c1.5-0.3,2.1-1.1,2.8-1.7c1.1-1,2.2-2,3.2-3.1c1-1,2-1.2,3.4-0.8c-0.5,2-2.4,3-3.4,4.7
		c0.7,0.6,1-0.1,1.3-0.4c1.2-1.1,2.3-2.2,3.4-3.4c1-1.1,2.1-1.5,3.6-1.1c-1.5,2.7-4.1,4.6-5.3,7.4c1.8-1.7,3.6-3.5,5.7-5.6
		c-0.8,4.3-2.4,7.7-4.9,10.7c-0.6,0.8-1.5,1.4-1,2.6c0.8-1,1.4-2.2,3-3.1c0,3.4,0.3,6.5-1.6,9.2c0.7,0.7,1-0.3,1.7-0.1
		c0.6,3.1,1.3,6.3,3.2,9c1.1,1.4,1.9,2.9,2.4,4.7c0.2,0.8,0.3,1.5-0.2,2.2c-1.9,3.1-2.3,6.5-2.5,9.9
		C165,273.7,164.8,273.9,164.7,274.3z M167.9,275.8c-1.3-0.6-1.8-1.2-1.4-2.7c0.4-1.4,0.8-2.9,0.6-4.4c-0.1-1.2,0.8-2.1,1.4-3
		c1.5-2.2,1.5-4.2,0.3-6.5c-1.2-2.3-2.2-4.7-3.2-7.1c-1.5-3.5-1.5-7.3-1.2-11c0.3-5,1.9-9.7,4.2-14.1c0.7-1.4,1.8-2.4,2.8-3.6
		c1.6,0.9,2.1,2.6,3,3.9c2.6,3.8,5.2,7.6,6.8,12.1c1.4,4,1.4,8,0.9,12.1c-0.3,2.7-0.2,5.2,1,7.6c0.6,1.2,0.8,2.5,0.9,3.8
		c0.3,2.1,0.7,4.2,1.5,6.3c1.1,3,1.2,6.2,1.2,9.7C180.1,279,173.8,278.6,167.9,275.8z"/>
	<path fill="#073B3A" d="M111.3,120.9c0.5-0.5,0.4-1,0.1-1.5c-0.3-0.5-0.3-1.3-1.2-1.5c-0.2,0.1-0.6,0.2-0.6,0.4
		c-0.3,1,0.1,2,0.7,2.8C110.5,121.4,111,121.2,111.3,120.9z"/>
	<path fill="#073B3A" d="M123.2,219.8C123.2,219.8,123.2,219.8,123.2,219.8C123.2,219.9,123.2,219.9,123.2,219.8L123.2,219.8z"/>
	<path fill="#073B3A" d="M159.1,241.8C159.1,241.7,159.1,241.7,159.1,241.8C159,241.7,159,241.7,159.1,241.8L159.1,241.8z"/>
	<path fill="#073B3A" d="M157.8,242.8c0.5-0.4,0.8-0.8,1.2-1.1C158.2,241.5,158,242,157.8,242.8z"/>
	<path fill="#073B3A" d="M159.1,241.7C159.1,241.8,159,241.7,159.1,241.7C159,241.7,159,241.7,159.1,241.7
		C159,241.7,159.1,241.7,159.1,241.7z"/>
</g>
<g id="Horn_Highlights">
	<path fill="#FFFFFF" d="M147,56.8c0.7-0.1,1.5-0.3,2,0.6c-0.3,0.8-1.1,0.9-1.7,1.4c-1.6,1.2-2.9,2.6-3.2,4.7
		c-0.4,2.8-0.4,2.8-3.3,3.3c-0.6,0.1-1.3,0.2-1.9,0.2c-5.3,0.4-9.5,3-13.3,6.6c-1.6,1.5-2.5,1.5-3.6-0.2c0.5-0.4,1.2-1.4,1.4-1.5
		c2.3-2,4-4.5,5.5-7c1.3-2.1,2.8-4.2,5.1-5C138.1,58.4,142.5,57.4,147,56.8z"/>
	<path fill="#FFFFFF" d="M136.2,56.8c0.4-1.2,0.5-2.3,1.4-3C138.5,56.3,138.5,56.3,136.2,56.8z"/>
	<path fill="#FFFFFF" d="M140.6,56c-0.5,0.1-0.9-0.1-1.1-0.6c-0.3-0.8-0.5-1.6-0.4-2.5c0-1.6,0.4-3.1,1.4-4.5
		c-0.2,2.2-0.7,4.4,0.5,6.5C141.4,55.5,141.2,55.8,140.6,56z"/>
	<path fill="#FFFFFF" d="M142.2,53.6c-0.4-2.4-0.9-4.9,1.1-7C142.6,48.9,142.4,51.3,142.2,53.6z"/>
	<path fill="#FFFFFF" d="M83.4,51.6c0.4,0.3,0.9,0.8,0.2,1.3c-0.5,0.3-0.7-0.3-0.9-0.6c-0.1-0.2-0.1-0.5-0.3-1.2
		C83,51.3,83.2,51.4,83.4,51.6z"/>
	<path fill="#FFFFFF" d="M79.4,52.3c0.5,0.6,0.8,1.4,1.4,1.9c0,0,0,0,0,0c0,0,0,0,0.1,0c-0.2-0.9-0.4-1.8-0.6-2.9
		c2,1.8,2,1.8,0.6,2.9c0,0,0,0.1,0,0.1c0,0-0.1-0.1-0.1-0.1c-0.4,0.5-1.1,0.8-1.4,0.3c-2.1-3.2-5.5-5.1-7.8-8.1
		C74.7,47.8,77.4,49.5,79.4,52.3z"/>
	<path fill="#FFFFFF" d="M77.6,56.2c-0.5,0.3-0.9,0.1-1.2-0.3c-1.8-3.3-4.5-5.8-6.9-8.7c3.1,2,5.8,4.4,8.2,7.2
		c0.2,0.2,0.2,0.5,0.3,0.8C78.3,55.6,78,55.9,77.6,56.2z"/>
	<path fill="#FFFFFF" d="M48.6,44.3c-0.6,0.2-1.3,0.1-1.4-0.6c-0.3-2.2-1.9-2.2-3.5-2.1c-0.7,0-1.5,0.1-2.3,0.1
		c0.1-0.4,0.1-0.8,0.3-0.9c2.3-0.9,3.8-2.8,6.1-3.7c2.4-0.9,4.6-2,7-2.8c2.4-0.8,4.8-1.5,7.2-2.1c2.7-0.6,3.8,0.2,4.1,2.7
		c0.1,0.6,0.1,1.1-0.6,1.4c-1.4,0.6-0.7,1.4-0.1,2.2c1.2,1.7,3,2.5,4.8,3.2c1.3,0.5,2.6,0.9,3.9,2.2c-2.4,0.2-4.3-0.4-6.1-0.8
		c-2.2-0.5-4.3-0.6-6.4-0.1c-3.2,0.9-6.5,0.8-9.7,1C50.8,44.1,49.7,44,48.6,44.3z"/>
	<path fill="#FFFFFF" d="M61.6,45.4c1.6-0.4,2.6-0.5,3.6,0.2c2.8,1.8,5.5,3.8,7.3,6.7c1.3,0.8,2.1,2.1,2.9,3.4
		c0.7,1.1,0.4,2.1-1.3,2.4c0-2.1-1-3.8-1.8-5.6C69.3,49.6,65.3,48,61.6,45.4z"/>
	<path fill="#FFFFFF" d="M116,70.2c-6-3.7-12.4-4.9-19.4-4.5c-3.7,0.3-7.4,0.5-10.9,2c-0.6,0.3-1.3,0.5-1.9,0
		c-2.1-1.6-4.5-1.4-6.9-1.7c-1.2-0.2-2.4-0.4-3.6-0.7c-1.4-0.4-1.4-1-0.6-2.3c1.3-1.9,3.1-3.2,5-4.4c7.5-4.8,15.5-6.6,24.2-4.1
		c1.9,0.5,3.6,1.6,5,3c3.6,3.9,6.8,8.1,10.4,12.6C116.6,70.2,116.2,70.3,116,70.2z"/>
	<path fill="#FFFFFF" d="M127.1,76.9c-1-1.5-1-1.5,1.4-3.4C128.4,75.2,127.6,76,127.1,76.9z"/>
	<path fill="#FFFFFF" d="M145.5,47.2c0.5-2.8,2.4-4.1,4.8-5.1C149.1,44.2,147.2,45.6,145.5,47.2z"/>
	<path fill="#FFFFFF" d="M164.3,35.7c-0.5,0.8-1.3,0.9-2.2,1.1c-4.4,1.1-8.9,1.9-13.3,3.3c-1,0.3-2.1,0.7-3.7,1.2
		c6.6-6.5,16.4-11.2,22.8-10C166.6,32.8,165.3,34.1,164.3,35.7z"/>
</g>
<g id="Mittens">
	<g>
		<path fill="#FFFFFF" d="M39.5,34.2c-0.3,0.2-0.6,0.4-0.9,0.6c0.1,0.1,0.2,0.3,0.4,0.4c0.3,0.3,0.6,0.6,0.9,0.8
			c0.3-0.2,0.6-0.4,0.9-0.6c-0.3-0.2-0.5-0.5-0.8-0.8C39.7,34.5,39.6,34.3,39.5,34.2z"/>
		<path fill="#FFFFFF" d="M38.2,35c-0.3,0.2-0.6,0.3-1,0.5c0.1,0.1,0.2,0.3,0.3,0.4c0.3,0.3,0.6,0.7,0.9,1c0.3-0.2,0.7-0.4,1-0.6
			C39,35.9,38.5,35.5,38.2,35z"/>
		<path fill="#FFFFFF" d="M36.7,35.7c-0.2,0.1-0.5,0.2-0.7,0.2c0.2,0.2,0.3,0.5,0.5,0.7c0.3,0.3,0.6,0.6,0.9,0.8
			c0.2-0.1,0.5-0.3,0.7-0.4C37.7,36.7,37.1,36.2,36.7,35.7z"/>
		<path fill="#FFFFFF" d="M35.4,36.1c-0.6,0.1-1.2,0.2-1.7,0.3c0.8,0.6,1.7,1.2,2.5,1.8c0,0,0,0,0,0c0.3-0.2,0.5-0.3,0.8-0.4
			c-0.3-0.2-0.6-0.4-0.8-0.7C35.8,36.8,35.5,36.4,35.4,36.1z"/>
		<path fill="none" d="M42.4,29.3c0.2-0.3,0.6-0.3,0.8-0.1c-0.8-4.1-1.6-8.1-2.7-12.1c-0.6-2.2-1.3-4.4-2-6.5
			c-0.2-0.7-1.1-4.7-3.1-2.7c-0.4,0.4-0.5,2.1-0.5,2.7c-0.1,1.2,1.3,5.5-0.9,5.6c-2.5,0.1-4.2-4.9-5.3-6.4C25.7,5.8,20,2,16.2,7.4
			c-3,4.2-0.7,9.7,1.8,13.5c4,6,9.4,10.8,15.1,15.1c0,0,0,0,0.1,0C37.4,35.3,40.4,32.9,42.4,29.3z"/>
		<path fill="#FFFFFF" d="M43.2,29.6c-0.1,0.4-0.3,0.7-0.5,1c0.1,0.2,0.1,0.3,0.2,0.5c0.1,0.2,0.2,0.4,0.4,0.5
			c0.1-0.2,0.1-0.4,0.1-0.7c0,0,0-0.1,0-0.1C43.4,30.4,43.3,30,43.2,29.6C43.2,29.6,43.2,29.6,43.2,29.6z"/>
		<path fill="#FFFFFF" d="M39.9,33.9c0.1,0.1,0.3,0.3,0.4,0.5c0.2,0.3,0.5,0.5,0.7,0.8c0.3-0.2,0.5-0.4,0.7-0.7
			c-0.3-0.5-0.6-0.9-1-1.3C40.4,33.4,40.2,33.7,39.9,33.9z"/>
		<path fill="#FFFFFF" d="M42.3,31.3c-0.1,0.1-0.1,0.2-0.2,0.3c0.3,0.4,0.5,0.8,0.7,1.3c0.1-0.2,0.2-0.4,0.3-0.6
			C42.8,32,42.5,31.6,42.3,31.3z"/>
		<path fill="#FFFFFF" d="M41.1,32.8c0.4,0.4,0.7,0.9,0.9,1.4c0.2-0.3,0.5-0.6,0.7-0.9c-0.3-0.4-0.6-0.8-0.9-1.2
			C41.5,32.3,41.3,32.6,41.1,32.8z"/>
		<path fill="#073B3A" d="M44.5,30.8c-0.6-4.4-1.6-8.8-2.7-13.1c-0.5-1.9-1.1-3.9-1.7-5.8c-0.5-1.7-1-3.8-2.1-5.2
			c-1.2-1.4-2.8-1.2-3.7,0.4c-0.6,1.2-0.7,2.7-0.7,4c0,1.7,0.5,5.2-1.6,2c-2.1-3.1-3.5-6.3-6.7-8.4c-2.4-1.6-5.2-1.8-7.7-0.4
			c-5.9,3.5-4.4,11.2-1.4,16.1c4.6,7.6,11.8,14.3,19.8,18.3c0.1,0.1,0.2,0,0.3-0.1c0,0,0.1,0,0.1,0c3.6-1,7.7-3.4,8.1-7.6
			C44.6,31,44.6,30.9,44.5,30.8z"/>
		<path fill="#FFFFFF" d="M33.2,36c-5.8-4.3-11.1-9.1-15.1-15.1c-2.6-3.8-4.8-9.3-1.8-13.5C20,2,25.7,5.8,28.6,9.8
			c1.1,1.5,2.8,6.5,5.3,6.4c2.2-0.1,0.8-4.4,0.9-5.6c0-0.6,0.1-2.3,0.5-2.7c2-2,2.8,2,3.1,2.7c0.7,2.2,1.4,4.3,2,6.5
			c1.1,4,2,8,2.7,12.1C43,29,42.6,29,42.4,29.3C40.4,32.9,37.4,35.3,33.2,36C33.2,36,33.2,36,33.2,36z"/>
		<path fill="#FFFFFF" d="M36.1,38.1C36.1,38.1,36.1,38.2,36.1,38.1c-0.9-0.6-1.7-1.2-2.5-1.8c0.6-0.1,1.2-0.2,1.7-0.3
			c0.1,0.4,0.5,0.7,0.7,0.9c0.3,0.3,0.5,0.5,0.8,0.7C36.7,37.8,36.4,38,36.1,38.1z"/>
		<path fill="#FFFFFF" d="M37.4,37.4c-0.3-0.2-0.6-0.5-0.9-0.8c-0.2-0.2-0.3-0.5-0.5-0.7c0.3-0.1,0.5-0.2,0.7-0.2
			c0.4,0.5,1,1,1.5,1.3C37.9,37.2,37.7,37.3,37.4,37.4z"/>
		<path fill="#FFFFFF" d="M38.5,36.8c-0.3-0.3-0.6-0.6-0.9-1c-0.1-0.1-0.2-0.3-0.3-0.4c0.3-0.1,0.6-0.3,1-0.5
			c0.3,0.5,0.8,0.9,1.3,1.2C39.1,36.5,38.8,36.6,38.5,36.8z"/>
		<path fill="#FFFFFF" d="M39.8,36c-0.3-0.3-0.6-0.5-0.9-0.8c-0.1-0.1-0.2-0.3-0.4-0.4c0.3-0.2,0.6-0.4,0.9-0.6
			c0.1,0.1,0.3,0.3,0.4,0.4c0.3,0.3,0.5,0.5,0.8,0.8C40.4,35.6,40.1,35.8,39.8,36z"/>
		<path fill="#FFFFFF" d="M41,35.2c-0.2-0.3-0.5-0.6-0.7-0.8c-0.1-0.1-0.3-0.3-0.4-0.5c0.3-0.2,0.6-0.5,0.8-0.7
			c0.4,0.4,0.7,0.8,1,1.3C41.5,34.7,41.2,35,41,35.2z"/>
		<path fill="#FFFFFF" d="M42,34.2c-0.2-0.5-0.5-1-0.9-1.4c0.2-0.2,0.4-0.5,0.6-0.7c0.3,0.4,0.6,0.8,0.9,1.2
			C42.4,33.6,42.2,33.9,42,34.2z"/>
		<path fill="#FFFFFF" d="M42.9,32.8c-0.2-0.4-0.5-0.9-0.7-1.3c0.1-0.1,0.1-0.2,0.2-0.3c0.2,0.4,0.5,0.7,0.8,1
			C43,32.4,42.9,32.7,42.9,32.8z"/>
		<path fill="#FFFFFF" d="M43.4,31c0,0.2-0.1,0.4-0.1,0.7c-0.1-0.2-0.3-0.3-0.4-0.5c-0.1-0.2-0.1-0.3-0.2-0.5c0.2-0.3,0.4-0.7,0.5-1
			c0,0,0-0.1,0-0.1C43.3,30,43.4,30.4,43.4,31C43.5,30.9,43.4,31,43.4,31z"/>
		<path fill="#073B3A" d="M35.9,21.4c-0.6-0.1-1.2-0.1-1.8-0.1c0.1-0.1,0.3-0.1,0.4-0.2c0.4-0.2,1-0.4,1.3-0.8
			c0.1-0.2,0-0.6-0.2-0.6c-0.5,0-0.9,0.3-1.4,0.5c-0.5,0.3-1,0.5-1.6,0.8c-0.1,0.1-0.2,0.2-0.3,0.3c-0.7,0-1.4,0.1-2.1,0.2
			c0.2-0.5,0.4-1,0.5-1.6c0.3-0.1,0.6-0.3,1-0.4c0.5-0.2,1.1-0.3,1.4-0.7c0.1-0.2,0-0.5-0.2-0.5c-0.5-0.1-1,0.2-1.5,0.4
			c-0.1,0-0.2,0.1-0.3,0.1c0.1-0.3,0.2-0.6,0.2-0.9c0.1-0.4-0.5-0.5-0.6-0.2c-0.2,0.4-0.4,0.8-0.6,1.2c-0.2-0.4-0.4-0.9-0.8-1
			c0,0-0.1,0-0.1,0c-0.2,0.6,0.3,1.4,0.5,1.9c0,0,0,0.1,0,0.1c-0.1,0.4-0.3,0.8-0.4,1.2c-0.3-0.4-0.7-0.8-1-1.3
			c0.5-0.6,0.3-1.4,0.3-2.2c0-0.2-0.2-0.3-0.4-0.2c-0.7,0.3-0.3,1-0.4,1.6c0,0.1,0,0.1-0.1,0.2c-0.4-0.4-0.7-0.9-1.1-1.3
			c-0.1-0.1-0.4,0-0.3,0.2c0.3,0.5,0.6,1,0.9,1.5c-0.5,0.1-1.3-0.3-1.7-0.2c-0.2,0-0.2,0.2-0.1,0.3c0.4,0.6,1.5,0.8,2.3,0.6
			c0.3,0.5,0.6,0.9,0.9,1.4c-0.6,0.1-1.2,0.2-1.8,0.3c-0.4-0.5-1.1-1.1-1.6-1c-0.2,0-0.3,0.2-0.3,0.5c0.1,0.3,0.4,0.4,0.7,0.6
			c0,0,0.1,0.1,0.1,0.1c-0.5,0.1-1,0.2-1.5,0.3C23.9,22.5,24,23,24.3,23c0.6-0.1,1.1-0.1,1.7-0.1c-0.3,0.4-0.7,0.7-1.1,0.9
			c-0.3,0.2-0.1,0.7,0.2,0.6c0.8-0.3,1.4-0.9,1.9-1.5c0.7,0,1.3-0.1,2-0.1c-0.2,0.6-0.3,1.1-0.5,1.7c-0.1,0-0.2,0.1-0.2,0.1
			c-0.5,0.2-1,0.4-1.5,0.7c-0.2,0.1-0.2,0.5,0.1,0.4c0.3-0.1,0.6-0.2,0.9-0.3c0.1,0,0.3-0.1,0.4-0.1c-0.1,0.4-0.3,0.9-0.4,1.3
			c-0.1,0.3,0.3,0.5,0.5,0.2c0.2-0.4,0.3-0.8,0.5-1.2c0,0,0,0.1,0,0.1c0.1,0.2,0.1,0.4,0.2,0.5c0.1,0.3,0.2,0.7,0.4,0.9
			c0.2,0.2,0.5,0.1,0.5-0.1c0-0.5-0.2-0.9-0.3-1.3c-0.1-0.3-0.2-0.8-0.4-1c0.2-0.4,0.3-0.8,0.5-1.2c0.4,0.5,0.7,1,1.1,1.5
			c-0.1,0.7-0.1,1.3,0,2c0.1,0.3,0.5,0.3,0.5-0.1c0-0.4,0-0.9,0-1.3c0.3,0.4,0.7,0.8,1.1,1.2c0.2,0.3,0.8,0,0.6-0.3
			c-0.2-0.4-0.4-0.7-0.7-1.1c0.4,0.2,0.9,0.3,1.4,0.4c0.3,0,0.6-0.4,0.3-0.6c-0.7-0.4-1.5-0.6-2.3-0.8c-0.3-0.5-0.7-1-1.1-1.5
			c0.9,0,1.8-0.1,2.6-0.1c0.4,0.4,0.8,0.9,1.2,1.2c0.2,0.2,0.5-0.1,0.4-0.4c-0.2-0.3-0.4-0.6-0.6-1c0.6-0.1,1.3-0.1,1.9-0.2
			C36.4,22.1,36.4,21.5,35.9,21.4z"/>
	</g>
	<g>
		<path fill="#FFFFFF" d="M169,27.7c-0.3-0.3-0.6-0.7-0.9-1c-0.1,0.2-0.3,0.4-0.4,0.5c-0.3,0.4-0.5,0.8-0.9,1c0,0,0,0,0,0
			c0.3,0.3,0.5,0.6,0.8,0.9C168,28.6,168.5,28.1,169,27.7z"/>
		<path fill="#FFFFFF" d="M170.3,28.8c-0.3-0.3-0.6-0.5-0.9-0.8c-0.5,0.5-0.9,1-1.4,1.5c0.1,0.1,0.2,0.2,0.3,0.3
			c0.2,0.2,0.3,0.3,0.5,0.4C169.3,29.8,169.8,29.3,170.3,28.8z"/>
		<path fill="#FFFFFF" d="M171.6,29.8c-0.3-0.2-0.7-0.5-1-0.7c-0.4,0.6-0.8,1.1-1.4,1.5c0.3,0.2,0.5,0.4,0.8,0.6
			C170.4,30.7,171,30.2,171.6,29.8z"/>
		<path fill="#FFFFFF" d="M171.9,30.1c-0.5,0.5-1,1-1.5,1.5c0.2,0.2,0.5,0.3,0.7,0.5c0.4-0.6,1.1-1.1,1.8-1.4
			C172.6,30.5,172.3,30.3,171.9,30.1z"/>
		<path fill="#FFFFFF" d="M167.9,26.4c-0.2-0.3-0.5-0.6-0.7-0.9c-0.2,0.3-0.4,0.5-0.6,0.8c-0.2,0.3-0.5,0.6-0.7,0.8
			c0.2,0.3,0.5,0.6,0.7,0.8c0.1-0.4,0.5-0.7,0.8-1C167.5,26.8,167.7,26.6,167.9,26.4z"/>
		<path fill="#FFFFFF" d="M166.1,23.8c-0.3-0.5-0.5-1-0.7-1.4c-0.3,1-0.7,2-1,3c0,0.1-0.1,0.1-0.1,0.2c0,0,0,0,0,0
			C164.8,24.8,165.4,24.3,166.1,23.8z"/>
		<path fill="#FFFFFF" d="M166.9,25.2c-0.2-0.3-0.4-0.6-0.6-0.9c-0.6,0.5-1,1.2-1.5,1.8c0.2,0.2,0.4,0.4,0.5,0.6
			c0.2-0.3,0.5-0.5,0.8-0.8C166.4,25.6,166.7,25.4,166.9,25.2z"/>
		<path fill="#FFFFFF" d="M174.1,31.2c-0.3-0.1-0.5-0.2-0.8-0.3c0,0,0,0,0,0c-0.4,0.3-0.7,0.5-1.1,0.8c-0.2,0.2-0.5,0.5-0.7,0.7
			c0.1,0.1,0.3,0.2,0.4,0.3c0.3-0.2,0.7-0.4,1-0.6C173.3,31.8,173.7,31.5,174.1,31.2z"/>
		<path fill="none" d="M185.6,4.6c-2,1.6-4.6,5.6-7.5,5.6c-2.5,0-2.7-2.6-2-4.4c0.2-0.6,0.8-1.1,0.9-1.8c0-2.8-1-3.3-3.1-1.4
			c-0.4,0.6-0.8,1.2-1.1,1.8c-1.2,2.1-2.1,4.3-3.1,6.5c-1.5,3.5-2.9,7.1-4.1,10.6c0.1,0,0.2,0,0.3,0.2c1.4,2.2,2.6,4.3,4.6,6
			c1.8,1.5,3.9,2.3,5.8,3.7c2.5-1.2,5-2.4,7.3-4c3.3-2.3,6.3-5.1,8.9-8.2c2.7-3.4,6.4-8.4,5.6-13C197-0.6,189.3,1.6,185.6,4.6z
			 M186.6,16.5c-0.6,0.3-1.2,0.6-1.8,0.9c0.4,0.2,0.9,0.5,1.3,0.7c0.2,0.1,0.1,0.5-0.2,0.4c-0.6-0.3-1.2-0.5-1.8-0.8
			c-0.8,0.4-1.6,0.7-2.4,1.1c0.5,0.5,0.9,0.9,1.4,1.4c0.7-0.1,1.5-0.2,2.2,0c0.1,0,0.2,0.2,0.1,0.3c-0.4,0.2-0.9,0.4-1.5,0.5
			c0.4,0.4,0.7,0.7,1.1,1.1c0.3,0.2-0.1,0.6-0.3,0.4c-0.6-0.4-1.2-0.9-1.8-1.3c-0.1,0-0.1,0-0.2,0c0.1,0.5,0.2,1,0.3,1.5
			c0,0.3-0.4,0.6-0.6,0.2c-0.3-0.6-0.4-1.3-0.5-2c0-0.2,0.1-0.3,0.2-0.4c-0.2-0.2-0.4-0.3-0.6-0.5c-0.1,0.6-0.2,1.1-0.3,1.6
			c0.2,0.1,0.3,0.3,0.5,0.4c0.3,0.5,0.6,1,0.9,1.5c0.2,0.4-0.3,0.7-0.5,0.4c-0.3-0.4-0.5-0.8-0.8-1.2c-0.1-0.1-0.1-0.2-0.2-0.3
			c-0.2,0.7-0.3,1.3-0.5,2c0,0.1-0.2,0.2-0.3,0c0-0.6,0-1.2,0-1.8c-0.3,0.2-0.7,0.3-1.1,0.1c-0.3-0.2-0.1-0.6,0.2-0.7
			c0.3,0,0.6-0.2,0.9-0.4c0-0.7,0.1-1.5,0.1-2.2c-0.7,0.4-1.5,0.7-2.3,1.1c-0.2,0.7-0.5,1.4-0.8,2.1c-0.2,0.3-0.6,0.1-0.5-0.2
			c0.2-0.5,0.3-1,0.4-1.6c-0.5,0.2-1,0.3-1.5,0.4c-0.4,0.1-0.5-0.4-0.2-0.6c0.4-0.3,0.9-0.6,1.3-0.8c-0.4-0.1-0.9-0.1-1.3-0.3
			c-0.4-0.1-0.3-0.7,0-0.8c0.8-0.3,1.8,0.1,2.5,0.4c0,0,0.1,0,0.1,0.1c0.6-0.2,1.2-0.5,1.8-0.7c-0.5-0.5-1-1-1.5-1.5
			c-0.1,0.1-0.3,0.1-0.5,0.1c-0.4-0.2-0.8-0.4-1.2-0.4c-0.4-0.1-0.7,0-1.1-0.2c-0.2-0.1-0.3-0.4-0.1-0.6c0.4-0.3,1.1-0.3,1.7-0.1
			c-0.2-0.3-0.5-0.6-0.7-0.9c-0.4-0.5,0.4-1,0.8-0.6c0.2,0.2,0.4,0.4,0.5,0.6c0-0.3,0.1-0.6,0.2-0.9c0.1-0.3,0.6-0.3,0.6,0
			c0,0.5,0,1.1,0,1.7c0.6,0.6,1.2,1.3,1.8,1.9c0.1-0.8,0.2-1.7,0.3-2.5c-0.6-0.7-1.2-1.6-1.3-2.4c0-0.4,0.5-0.6,0.7-0.3
			c0.3,0.4,0.5,0.8,0.7,1.3c0,0,0.1,0.1,0.1,0.1c0.1-0.6,0.2-1.2,0.4-1.8c0.1-0.4,0.8-0.5,0.8,0c0,0.7,0,1.4-0.1,2.1
			c0.3-0.3,0.5-0.5,0.8-0.8c0.3-0.3,0.7,0.1,0.5,0.4c-0.4,0.6-0.9,1.1-1.4,1.6c-0.1,0.8-0.2,1.7-0.3,2.5c0.5-0.2,1-0.4,1.5-0.6
			c0-0.1,0-0.2,0-0.2c0.3-0.6,0.6-1.4,1.1-1.9c0.3-0.3,0.7,0,0.6,0.4c-0.1,0.5-0.4,0.9-0.7,1.4c0.7-0.3,1.4-0.5,2.1-0.7
			C186.6,16.1,186.8,16.4,186.6,16.5z"/>
		<path fill="#FFFFFF" d="M174.5,31.4c-0.4,0.4-0.8,0.8-1.3,1.1c-0.2,0.2-0.5,0.4-0.8,0.6c0,0,0,0,0.1,0.1c1.1-0.5,2.3-1,3.4-1.5
			C175.4,31.6,175,31.5,174.5,31.4C174.5,31.4,174.5,31.4,174.5,31.4z"/>
		<path fill="#073B3A" d="M199.4,4.6c-1-2.9-3.7-4.5-6.7-4.5c-3.5,0-6.4,1.9-9,4.2c-0.6,0.5-1.2,1.1-1.8,1.7c-0.5,0.5-1,0.9-1.5,1.4
			c-0.1,0.1-0.1,0.1-0.2,0.2c-0.4-0.1-0.9-0.1-1.3-0.3c-0.8-0.3-1.1-0.8-1-1.6c0.1-0.2,0.2-0.3,0.3-0.4c0.3-0.7,0.7-1.4,0.8-2.1
			c0.2-2.2-1.8-3.5-3.8-3c-1.4,0.4-2.3,1.5-3,2.7c-1.3,2.2-2.4,4.7-3.4,7.1c-2.2,4.9-4.1,10-5.5,15.1c0,0.2,0,0.3,0.1,0.5
			c0,0.1,0,0.2,0,0.2c1,2.1,2.8,3.8,4.6,5.3c0.9,0.8,1.9,1.5,2.9,2.2c0,0,1.1,0.7,1.6,0.9c0,0.1,0,0.1,0.1,0.1c0,0,0.1,0,0.1,0
			c0.1,0,0.1,0,0.2-0.1c0,0,0.1-0.1,0.1-0.1c0,0,0-0.1,0-0.1c6.9-1.2,13.4-5.8,18.2-10.7C195.4,18.9,201.7,11.2,199.4,4.6z"/>
		<path fill="#FFFFFF" d="M164.3,25.5c0,0,0.1-0.1,0.1-0.2c0.3-1,0.7-2,1-3c0.2,0.5,0.4,1,0.7,1.4C165.4,24.3,164.8,24.8,164.3,25.5
			C164.4,25.5,164.4,25.5,164.3,25.5z"/>
		<path fill="#FFFFFF" d="M165.4,26.7c-0.2-0.2-0.4-0.4-0.5-0.6c0.5-0.6,0.9-1.3,1.5-1.8c0.2,0.3,0.4,0.6,0.6,0.9
			c-0.3,0.2-0.5,0.5-0.7,0.7C165.9,26.1,165.6,26.4,165.4,26.7z"/>
		<path fill="#FFFFFF" d="M165.8,27.1c0.3-0.3,0.5-0.6,0.7-0.8c0.2-0.3,0.4-0.5,0.6-0.8c0.2,0.3,0.4,0.6,0.7,0.9
			c-0.2,0.2-0.4,0.4-0.6,0.5c-0.3,0.3-0.6,0.6-0.8,1C166.3,27.7,166,27.4,165.8,27.1z"/>
		<path fill="#FFFFFF" d="M167.6,29.2c-0.3-0.3-0.5-0.6-0.8-0.9c0,0,0,0,0,0c0.4-0.2,0.6-0.7,0.9-1c0.1-0.2,0.3-0.4,0.4-0.5
			c0.3,0.3,0.6,0.7,0.9,1C168.5,28.1,168,28.6,167.6,29.2z"/>
		<path fill="#FFFFFF" d="M168.3,29.9c-0.1-0.1-0.2-0.2-0.3-0.3c0.5-0.5,0.9-1,1.4-1.5c0.3,0.3,0.6,0.6,0.9,0.8
			c-0.5,0.5-1,1-1.5,1.5C168.6,30.1,168.4,30,168.3,29.9z"/>
		<path fill="#FFFFFF" d="M169.2,30.6c0.5-0.4,1-1,1.4-1.5c0.3,0.3,0.7,0.5,1,0.7c-0.6,0.4-1.2,0.8-1.6,1.4
			C169.7,31.1,169.5,30.9,169.2,30.6z"/>
		<path fill="#FFFFFF" d="M171.1,32.1c-0.2-0.2-0.5-0.3-0.7-0.5c0.5-0.5,1-1,1.5-1.5c0.3,0.2,0.7,0.4,1,0.6
			C172.3,31,171.5,31.4,171.1,32.1z"/>
		<path fill="#FFFFFF" d="M171.9,32.7c-0.1-0.1-0.3-0.2-0.4-0.3c0.2-0.2,0.4-0.5,0.7-0.7c0.3-0.3,0.7-0.6,1.1-0.8c0,0,0,0,0,0
			c0.3,0.1,0.5,0.2,0.8,0.3c-0.4,0.3-0.8,0.6-1.2,0.9C172.6,32.3,172.2,32.4,171.9,32.7z"/>
		<path fill="#FFFFFF" d="M172.5,33.2C172.5,33.1,172.4,33.1,172.5,33.2c0.2-0.2,0.5-0.4,0.7-0.6c0.5-0.3,0.9-0.7,1.3-1.1
			c0,0,0-0.1,0-0.1c0.5,0.1,0.9,0.3,1.4,0.3C174.8,32.1,173.6,32.6,172.5,33.2z"/>
		<path fill="#FFFFFF" d="M192.6,19.1c-2.5,3.2-5.5,5.9-8.9,8.2c-2.3,1.6-4.8,2.8-7.3,4c-1.8-1.4-4-2.1-5.8-3.7
			c-2-1.7-3.2-3.8-4.6-6c-0.1-0.1-0.2-0.2-0.3-0.2c1.2-3.6,2.6-7.2,4.1-10.6c1-2.2,1.9-4.4,3.1-6.5c0.3-0.6,0.7-1.2,1.1-1.8
			c2.1-1.9,3.1-1.5,3.1,1.4c-0.1,0.6-0.7,1.2-0.9,1.8c-0.8,1.8-0.5,4.4,2,4.4c2.8,0,5.5-3.9,7.5-5.6c3.7-3,11.4-5.2,12.6,1.6
			C199.1,10.7,195.3,15.8,192.6,19.1z"/>
		<path fill="#073B3A" d="M186.4,16.2c-0.7,0.2-1.4,0.5-2.1,0.7c0.3-0.4,0.6-0.9,0.7-1.4c0.1-0.4-0.3-0.7-0.6-0.4
			c-0.5,0.5-0.8,1.3-1.1,1.9c0,0.1,0,0.2,0,0.2c-0.5,0.2-1,0.4-1.5,0.6c0.1-0.8,0.2-1.7,0.3-2.5c0.5-0.5,1-1,1.4-1.6
			c0.2-0.3-0.2-0.7-0.5-0.4c-0.3,0.3-0.5,0.6-0.8,0.8c0-0.7,0.1-1.4,0.1-2.1c0-0.5-0.7-0.4-0.8,0c-0.1,0.6-0.3,1.2-0.4,1.8
			c0,0-0.1-0.1-0.1-0.1c-0.2-0.4-0.4-0.9-0.7-1.3c-0.3-0.3-0.8-0.1-0.7,0.3c0.1,0.8,0.7,1.7,1.3,2.4c-0.1,0.8-0.2,1.7-0.3,2.5
			c-0.6-0.6-1.2-1.3-1.8-1.9c0-0.6,0-1.1,0-1.7c0-0.4-0.5-0.3-0.6,0c-0.1,0.3-0.1,0.6-0.2,0.9c-0.2-0.2-0.4-0.4-0.5-0.6
			c-0.4-0.5-1.2,0.1-0.8,0.6c0.2,0.3,0.5,0.6,0.7,0.9c-0.6-0.2-1.2-0.3-1.7,0.1c-0.2,0.2-0.2,0.5,0.1,0.6c0.3,0.2,0.7,0.1,1.1,0.2
			c0.4,0.1,0.8,0.2,1.2,0.4c0.1,0.1,0.3,0,0.5-0.1c0.5,0.5,1,1,1.5,1.5c-0.6,0.2-1.2,0.5-1.8,0.7c0,0-0.1,0-0.1-0.1
			c-0.7-0.3-1.7-0.7-2.5-0.4c-0.3,0.1-0.4,0.7,0,0.8c0.4,0.1,0.8,0.2,1.3,0.3c-0.5,0.2-0.9,0.5-1.3,0.8c-0.3,0.2-0.1,0.7,0.2,0.6
			c0.5-0.1,1-0.2,1.5-0.4c-0.1,0.5-0.3,1.1-0.4,1.6c-0.1,0.3,0.3,0.5,0.5,0.2c0.4-0.7,0.6-1.4,0.8-2.1c0.8-0.3,1.5-0.7,2.3-1.1
			c-0.1,0.7-0.1,1.5-0.1,2.2c-0.3,0.1-0.6,0.4-0.9,0.4c-0.3,0-0.5,0.5-0.2,0.7c0.4,0.3,0.7,0.1,1.1-0.1c0,0.6,0,1.2,0,1.8
			c0,0.2,0.2,0.1,0.3,0c0.2-0.6,0.3-1.3,0.5-2c0.1,0.1,0.2,0.2,0.2,0.3c0.3,0.4,0.5,0.8,0.8,1.2c0.2,0.4,0.7,0,0.5-0.4
			c-0.3-0.5-0.6-1-0.9-1.5c-0.1-0.2-0.3-0.3-0.5-0.4c0.1-0.5,0.2-1.1,0.3-1.6c0.2,0.2,0.4,0.3,0.6,0.5c-0.1,0.1-0.2,0.2-0.2,0.4
			c0.1,0.7,0.2,1.4,0.5,2c0.2,0.3,0.6,0.1,0.6-0.2c0-0.5-0.2-1-0.3-1.5c0.1,0,0.1,0,0.2,0c0.6,0.5,1.2,0.9,1.8,1.3
			c0.3,0.2,0.6-0.2,0.3-0.4c-0.4-0.3-0.8-0.7-1.1-1.1c0.5-0.1,1-0.2,1.5-0.5c0.1-0.1,0-0.3-0.1-0.3c-0.7-0.2-1.4-0.1-2.2,0
			c-0.5-0.5-1-0.9-1.4-1.4c0.8-0.4,1.6-0.7,2.4-1.1c0.6,0.3,1.2,0.5,1.8,0.8c0.3,0.1,0.4-0.3,0.2-0.4c-0.4-0.2-0.9-0.5-1.3-0.7
			c0.6-0.3,1.2-0.6,1.8-0.9C186.8,16.4,186.6,16.1,186.4,16.2z"/>
	</g>
</g>
</svg>
